<svg width="20" height="20" viewBox="0 0 20 20" fill="none" xmlns="http://www.w3.org/2000/svg">
<mask id="path-1-inside-1_3474_63324" fill="white">
<path d="M13.529 4.42689C13.7438 4.07633 13.6349 3.61435 13.2648 3.43538C11.8948 2.77289 10.3494 2.5403 8.8345 2.77861C7.07345 3.05565 5.46866 3.95091 4.30786 5.30391C3.14705 6.6569 2.50615 8.37913 2.50004 10.1618C2.49394 11.9445 3.12305 13.6711 4.27456 15.032C5.42608 16.3929 7.0247 17.2992 8.78382 17.5882C10.5429 17.8773 12.3475 17.5303 13.874 16.6095C15.4005 15.6887 16.549 14.2542 17.1137 12.5633C17.5995 11.1088 17.626 9.54624 17.1994 8.08541C17.0842 7.69079 16.6466 7.507 16.2653 7.66076C15.884 7.81453 15.7045 8.24767 15.81 8.64501C16.1099 9.77461 16.0753 10.973 15.7017 12.0917C15.249 13.447 14.3285 14.5967 13.105 15.3347C11.8815 16.0728 10.4352 16.3509 9.02523 16.1192C7.6153 15.8875 6.334 15.1611 5.41106 14.0704C4.48812 12.9796 3.9839 11.5958 3.98879 10.1669C3.99368 8.73809 4.50736 7.35772 5.43775 6.2733C6.36813 5.18888 7.65437 4.47132 9.06585 4.24928C10.231 4.06599 11.4186 4.23024 12.483 4.713C12.8574 4.88281 13.3142 4.77745 13.529 4.42689Z"/>
</mask>
<path d="M13.529 4.42689C13.7438 4.07633 13.6349 3.61435 13.2648 3.43538C11.8948 2.77289 10.3494 2.5403 8.8345 2.77861C7.07345 3.05565 5.46866 3.95091 4.30786 5.30391C3.14705 6.6569 2.50615 8.37913 2.50004 10.1618C2.49394 11.9445 3.12305 13.6711 4.27456 15.032C5.42608 16.3929 7.0247 17.2992 8.78382 17.5882C10.5429 17.8773 12.3475 17.5303 13.874 16.6095C15.4005 15.6887 16.549 14.2542 17.1137 12.5633C17.5995 11.1088 17.626 9.54624 17.1994 8.08541C17.0842 7.69079 16.6466 7.507 16.2653 7.66076C15.884 7.81453 15.7045 8.24767 15.81 8.64501C16.1099 9.77461 16.0753 10.973 15.7017 12.0917C15.249 13.447 14.3285 14.5967 13.105 15.3347C11.8815 16.0728 10.4352 16.3509 9.02523 16.1192C7.6153 15.8875 6.334 15.1611 5.41106 14.0704C4.48812 12.9796 3.9839 11.5958 3.98879 10.1669C3.99368 8.73809 4.50736 7.35772 5.43775 6.2733C6.36813 5.18888 7.65437 4.47132 9.06585 4.24928C10.231 4.06599 11.4186 4.23024 12.483 4.713C12.8574 4.88281 13.3142 4.77745 13.529 4.42689Z" stroke="#BDBDBD" stroke-width="2.40876" mask="url(#path-1-inside-1_3474_63324)"/>
<path d="M7.08203 9.66667L9.58203 12.1667L15.315 5.5" stroke="#BDBDBD" stroke-width="1.7" stroke-linecap="round" stroke-linejoin="round"/>
</svg>
