<svg width="20" height="20" viewBox="0 0 20 20" fill="none" xmlns="http://www.w3.org/2000/svg">
<mask id="path-1-inside-1_3474_45552" fill="white">
<path d="M17.5 10.1875C17.5 14.3296 14.1421 17.6875 10 17.6875C5.85786 17.6875 2.5 14.3296 2.5 10.1875C2.5 6.04536 5.85786 2.6875 10 2.6875C14.1421 2.6875 17.5 6.04536 17.5 10.1875ZM3.98875 10.1875C3.98875 13.5074 6.68008 16.1987 10 16.1987C13.3199 16.1987 16.0112 13.5074 16.0112 10.1875C16.0112 6.86758 13.3199 4.17625 10 4.17625C6.68008 4.17625 3.98875 6.86758 3.98875 10.1875Z"/>
</mask>
<path d="M17.5 10.1875C17.5 14.3296 14.1421 17.6875 10 17.6875C5.85786 17.6875 2.5 14.3296 2.5 10.1875C2.5 6.04536 5.85786 2.6875 10 2.6875C14.1421 2.6875 17.5 6.04536 17.5 10.1875ZM3.98875 10.1875C3.98875 13.5074 6.68008 16.1987 10 16.1987C13.3199 16.1987 16.0112 13.5074 16.0112 10.1875C16.0112 6.86758 13.3199 4.17625 10 4.17625C6.68008 4.17625 3.98875 6.86758 3.98875 10.1875Z" stroke="#FF3E3E" stroke-width="2.40876" mask="url(#path-1-inside-1_3474_45552)"/>
<path d="M10 6.5V10.5" stroke="#FF3E3E" stroke-width="1.7" stroke-linecap="round"/>
<path d="M10 13L10 14" stroke="#FF3E3E" stroke-width="1.7" stroke-linecap="round"/>
</svg>
