<svg width="49" height="48" viewBox="0 0 49 48" fill="none" xmlns="http://www.w3.org/2000/svg">
<g clip-path="url(#clip0_3404_66769)">
<path d="M24.5 48C37.7548 48 48.5 37.2548 48.5 24C48.5 10.7452 37.7548 0 24.5 0C11.2452 0 0.5 10.7452 0.5 24C0.5 37.2548 11.2452 48 24.5 48Z" fill="white"/>
<path d="M28.8418 25.4047L29.5018 21.0967H25.3618V18.3007C25.3618 17.1247 25.9378 15.9727 27.7978 15.9727H29.6818V12.3007C29.6818 12.3007 27.9778 12.0127 26.3458 12.0127C22.9378 12.0127 20.7178 14.0767 20.7178 17.8087V21.0967H16.9258V25.4047H20.7178V35.8207C21.4738 35.9407 22.2538 36.0007 23.0458 36.0007C23.8378 36.0007 24.6178 35.9407 25.3738 35.8207V25.4047H28.8538H28.8418Z" fill="#6FA0ED"/>
</g>
<defs>
<clipPath id="clip0_3404_66769">
<rect width="48" height="48" fill="white" transform="translate(0.5)"/>
</clipPath>
</defs>
</svg>
