<svg width="24" height="24" viewBox="0 0 24 24" fill="none" xmlns="http://www.w3.org/2000/svg">
<mask id="mask0_3220_774367" style="mask-type:alpha" maskUnits="userSpaceOnUse" x="2" y="2" width="20" height="20">
<rect x="2" y="2" width="20" height="20" fill="#D9D9D9"/>
</mask>
<g mask="url(#mask0_3220_774367)">
<path d="M8.69921 18.2218C8.04687 18.06 7.55234 17.6996 7.21561 17.1408C6.87889 16.5819 6.79143 15.9763 6.95323 15.324C6.97791 15.2245 7.01093 15.1505 7.05228 15.1021C7.09364 15.0536 7.10184 15.0087 7.0769 14.9673C7.05196 14.9259 7.00842 14.9122 6.94628 14.9261C6.88414 14.9401 6.80331 14.9347 6.70381 14.91C6.05146 14.7482 5.55693 14.3879 5.22021 13.829C4.88348 13.2701 4.79602 12.6645 4.95782 12.0122C5.11963 11.3599 5.47996 10.8653 6.03882 10.5286C6.59768 10.1919 7.20329 10.1044 7.85563 10.2662C8.10993 10.3293 8.33389 10.4201 8.52751 10.5385C8.72113 10.6569 8.89547 10.8058 9.05053 10.9851L12.4865 8.91489C12.4004 8.69402 12.3503 8.47031 12.3361 8.24378C12.3218 8.01725 12.3462 7.77684 12.4093 7.52253C12.5711 6.87019 12.9315 6.37566 13.4903 6.03893C14.0492 5.70221 14.6548 5.61475 15.3071 5.77655C15.9595 5.93836 16.454 6.29869 16.7907 6.85755C17.1274 7.41641 17.2149 8.02201 17.0531 8.67436C17.0284 8.77387 16.9954 8.84783 16.9541 8.89626C16.9127 8.94469 16.9045 8.9896 16.9294 9.031C16.9544 9.07239 16.9979 9.08613 17.0601 9.0722C17.1222 9.05827 17.203 9.06365 17.3025 9.08833C17.9549 9.25013 18.4494 9.61046 18.7861 10.1693C19.1229 10.7282 19.2103 11.3338 19.0485 11.9861C18.8867 12.6385 18.5264 13.133 17.9675 13.4697C17.4087 13.8065 16.8031 13.8939 16.1507 13.7321C15.8964 13.669 15.6724 13.5783 15.4788 13.4598C15.2852 13.3414 15.1109 13.1925 14.9558 13.0132L11.5198 15.0834C11.6059 15.3043 11.656 15.528 11.6703 15.7545C11.6845 15.9811 11.6601 16.2215 11.597 16.4758C11.4352 17.1281 11.0749 17.6227 10.516 17.9594C9.95716 18.2961 9.35155 18.3836 8.69921 18.2218Z" stroke="#A1ABB8" stroke-width="1.5" stroke-linejoin="round"/>
</g>
</svg>
