<svg width="16" height="18" viewBox="0 0 16 18" fill="none" xmlns="http://www.w3.org/2000/svg">
<path d="M11.5 2.66109C12.3137 2.66109 12.7206 2.66109 13.0544 2.76082C13.9603 3.03145 14.6678 3.82037 14.9106 4.8304C15 5.20259 15 5.65624 15 6.56353V12.4172C15 14.0564 15 14.8759 14.7139 15.502C14.4622 16.0527 14.0607 16.5005 13.5667 16.7811C13.0052 17.1001 12.2701 17.1001 10.8 17.1001H5.2C3.72986 17.1001 2.99479 17.1001 2.43327 16.7811C1.93935 16.5005 1.53778 16.0527 1.28611 15.502C1 14.8759 1 14.0564 1 12.4172V6.56353C1 5.65624 1 5.20259 1.08944 4.8304C1.33217 3.82037 2.03973 3.03145 2.9456 2.76082C3.27941 2.66109 3.68627 2.66109 4.5 2.66109M11.5 2.66109C11.5 3.20748 11.5 3.48068 11.4046 3.68937C11.3207 3.87294 11.1869 4.02219 11.0222 4.11573C10.8351 4.22206 10.59 4.22206 10.1 4.22206H5.9C5.40995 4.22206 5.16493 4.22206 4.97776 4.11573C4.81312 4.02219 4.67926 3.87294 4.59537 3.68937C4.5 3.48068 4.5 3.20748 4.5 2.66109M11.5 2.66109C11.5 2.11469 11.5 1.84148 11.4046 1.63279C11.3207 1.44922 11.1869 1.29997 11.0222 1.20643C10.8351 1.1001 10.59 1.1001 10.1 1.1001H5.9C5.40995 1.1001 5.16493 1.1001 4.97776 1.20643C4.81312 1.29997 4.67926 1.44922 4.59537 1.63279C4.5 1.84148 4.5 2.11469 4.5 2.66109M5 10.5001L7 12.5001L11.5 8.00012" stroke="#94A3B8" stroke-width="1.5" stroke-linecap="round" stroke-linejoin="round"/>
</svg>
