<svg width="20" height="20" viewBox="0 0 20 20" fill="none" xmlns="http://www.w3.org/2000/svg">
<mask id="mask0_3202_759519" style="mask-type:alpha" maskUnits="userSpaceOnUse" x="0" y="0" width="20" height="20">
<rect width="20" height="20" fill="#D9D9D9"/>
</mask>
<g mask="url(#mask0_3202_759519)">
<path d="M10 16.25C9.12928 16.25 8.32086 16.0854 7.56715 15.7601C6.79887 15.4286 6.13806 14.9824 5.57783 14.4222C5.0176 13.8619 4.57139 13.2011 4.23987 12.4329C3.91464 11.6791 3.75 10.8707 3.75 10C3.75 9.12928 3.91464 8.32086 4.23987 7.56715C4.57139 6.79887 5.0176 6.13806 5.57783 5.57783C6.13806 5.0176 6.79887 4.57139 7.56715 4.23987C8.32086 3.91464 9.12928 3.75 10 3.75C10.8707 3.75 11.6791 3.91464 12.4329 4.23987C13.2011 4.57139 13.8619 5.0176 14.4222 5.57783C14.9824 6.13806 15.4286 6.79887 15.7601 7.56715C16.0854 8.32086 16.25 9.12928 16.25 10C16.25 10.8707 16.0854 11.6791 15.7601 12.4329C15.4286 13.2011 14.9824 13.8619 14.4222 14.4222C13.8619 14.9824 13.2011 15.4286 12.4329 15.7601C11.6791 16.0854 10.8707 16.25 10 16.25Z" stroke="#989898" stroke-width="1.5"/>
<path d="M7 10H13" stroke="#989898" stroke-width="1.5" stroke-linecap="round" stroke-linejoin="round"/>
</g>
</svg>
