<svg width="24" height="24" viewBox="0 0 24 24" fill="none" xmlns="http://www.w3.org/2000/svg">
<path d="M17.5 7C17.5 8.10457 16.6046 9 15.5 9C14.3954 9 13.5 8.10457 13.5 7M17.5 7C17.5 5.89543 16.6046 5 15.5 5C14.3954 5 13.5 5.89543 13.5 7M17.5 7H19.5M13.5 7H4.5M17.5 17C17.5 18.1046 16.6046 19 15.5 19C14.3954 19 13.5 18.1046 13.5 17M17.5 17C17.5 15.8954 16.6046 15 15.5 15C14.3954 15 13.5 15.8954 13.5 17M17.5 17H19.5M13.5 17H4.5M10.5 12C10.5 13.1046 9.60457 14 8.5 14C7.39543 14 6.5 13.1046 6.5 12M10.5 12C10.5 10.8954 9.60457 10 8.5 10C7.39543 10 6.5 10.8954 6.5 12M10.5 12H19.5M6.5 12H4.5" stroke="#FF7B34" stroke-width="1.5" stroke-linecap="round"/>
</svg>
