<svg width="28" height="28" viewBox="0 0 28 28" fill="none" xmlns="http://www.w3.org/2000/svg">
<path d="M14 0.75C21.3178 0.75 27.25 6.68223 27.25 14C27.25 21.3178 21.3178 27.25 14 27.25C6.68223 27.25 0.75 21.3178 0.75 14C0.75 6.68223 6.68223 0.75 14 0.75Z" fill="#FFFDFC"/>
<path d="M14 0.75C21.3178 0.75 27.25 6.68223 27.25 14C27.25 21.3178 21.3178 27.25 14 27.25C6.68223 27.25 0.75 21.3178 0.75 14C0.75 6.68223 6.68223 0.75 14 0.75Z" stroke="#DEE2E6" stroke-width="1.5"/>
<path d="M15 18.833L10.75 14.333L15 9.83301" stroke="#B8C3CE" stroke-width="1.66667" stroke-miterlimit="10" stroke-linecap="round" stroke-linejoin="round"/>
</svg>
