<svg width="24" height="24" viewBox="0 0 24 24" fill="none" xmlns="http://www.w3.org/2000/svg">
<path d="M19 5L16.8749 7.1251M5 19L7.12509 16.8749M14.041 9.95896C13.5224 9.41861 12.7996 9.08333 12 9.08333C10.4221 9.08333 9.14286 10.3891 9.14286 12C9.14286 12.7946 9.45413 13.515 9.95897 14.041M14.041 9.95896L9.95897 14.041M14.041 9.95896L16.8749 7.1251M9.95897 14.041L16.8749 7.1251M9.95897 14.041L7.12509 16.8749M16.8749 7.1251C15.5012 6.07309 13.8182 5.5 12 5.5C8.24603 5.5 5.06831 7.9429 4 12C4.55089 14.0921 5.66265 15.7549 7.12509 16.8749M9.04498 17.955C9.96401 18.3125 10.9599 18.5 12 18.5C15.7539 18.5 18.9317 16.0571 20 12C19.6578 10.7005 19.0992 9.56655 18.3745 8.62548" stroke="#475569" stroke-width="1.5" stroke-linecap="round" stroke-linejoin="round"/>
</svg>
