<svg width="16" height="17" viewBox="0 0 16 17" fill="none" xmlns="http://www.w3.org/2000/svg">
<path fill-rule="evenodd" clip-rule="evenodd" d="M8.00033 13.8333C10.9458 13.8333 13.3337 11.4455 13.3337 8.49996C13.3337 5.55444 10.9458 3.16663 8.00033 3.16663C5.05481 3.16663 2.66699 5.55444 2.66699 8.49996C2.66699 11.4455 5.05481 13.8333 8.00033 13.8333ZM8.66699 10.5C8.66699 10.8681 8.36956 11.1666 8.00265 11.1666H7.998C7.63109 11.1666 7.33366 10.8681 7.33366 10.5C7.33366 10.1318 7.63109 9.83329 7.998 9.83329H8.00265C8.36956 9.83329 8.66699 10.1318 8.66699 10.5ZM7.50033 8.31004C7.50033 8.59902 7.72418 8.83329 8.00033 8.83329C8.27647 8.83329 8.50033 8.59902 8.50033 8.31004V6.35655C8.50033 6.06756 8.27647 5.83329 8.00033 5.83329C7.72418 5.83329 7.50033 6.06756 7.50033 6.35655V8.31004Z" fill="#EE4544"/>
</svg>
