<svg width="24" height="24" viewBox="0 0 24 24" fill="none" xmlns="http://www.w3.org/2000/svg">
<path d="M14.4807 17.6C14.4807 18.9255 13.3699 20 11.9995 20C10.6292 20 9.51829 18.9255 9.51829 17.6M13.4854 7.39085C13.8455 7.03091 14.0672 6.54049 14.0672 6C14.0672 4.89543 13.1415 4 11.9995 4C10.8576 4 9.93183 4.89543 9.93183 6C9.93183 6.54049 10.1535 7.03091 10.5137 7.39085M16.9619 11.36C16.9619 10.2567 16.4391 9.19859 15.5085 8.41844C14.5778 7.63828 13.3156 7.2 11.9995 7.2C10.6834 7.2 9.42118 7.63828 8.49054 8.41844C7.5599 9.19859 7.03708 10.2567 7.03708 11.36C7.03708 13.1854 6.56906 14.5205 5.98509 15.4757C5.31953 16.5645 4.98674 17.1089 4.99989 17.2389C5.01492 17.3877 5.04261 17.4346 5.16735 17.5229C5.27638 17.6 5.82418 17.6 6.91979 17.6H17.0792C18.1748 17.6 18.7226 17.6 18.8317 17.5229C18.9564 17.4346 18.9841 17.3877 18.9991 17.2389C19.0123 17.1089 18.6795 16.5645 18.0139 15.4757C17.43 14.5205 16.9619 13.1854 16.9619 11.36Z" stroke="#FF7B34" stroke-width="1.5" stroke-linecap="round" stroke-linejoin="round"/>
</svg>
