<svg width="24" height="24" viewBox="0 0 24 24" fill="none" xmlns="http://www.w3.org/2000/svg">
<path d="M20 9.66667H4M13.6 16.2778L15.6 14.3333L13.6 12.3889M10.4 12.3889L8.4 14.3333L10.4 16.2778M4 8.73333L4 15.2667C4 16.5735 4 17.2268 4.26158 17.726C4.49168 18.165 4.85883 18.522 5.31042 18.7457C5.82381 19 6.49587 19 7.84 19H16.16C17.5041 19 18.1762 19 18.6896 18.7457C19.1412 18.522 19.5083 18.165 19.7384 17.726C20 17.2269 20 16.5735 20 15.2667V8.73333C20 7.42655 20 6.77315 19.7384 6.27402C19.5083 5.83498 19.1412 5.47802 18.6896 5.25432C18.1762 5 17.5041 5 16.16 5L7.84 5C6.49587 5 5.82381 5 5.31042 5.25432C4.85883 5.47802 4.49168 5.83498 4.26158 6.27402C4 6.77315 4 7.42654 4 8.73333Z" stroke="#020617" stroke-width="1.5" stroke-linecap="round" stroke-linejoin="round"/>
</svg>
