<svg width="24" height="24" viewBox="0 0 24 24" fill="none" xmlns="http://www.w3.org/2000/svg">
<path d="M11.262 6.47597H8.33974C7.17072 6.47597 6.58621 6.47597 6.13971 6.70348C5.74695 6.9036 5.42763 7.22292 5.22751 7.61568C5 8.06218 5 8.64669 5 9.81571V15.6603C5 16.8293 5 17.4138 5.22751 17.8603C5.42763 18.2531 5.74695 18.5724 6.13971 18.7725C6.58621 19 7.17072 19 8.33974 19H14.1843C15.3533 19 15.9378 19 16.3843 18.7725C16.7771 18.5724 17.0964 18.2531 17.2965 17.8603C17.524 17.4138 17.524 16.8293 17.524 15.6603V12.738M15 6.91266L9.82678 12.0859C9.58611 12.3265 9.46578 12.4469 9.37972 12.5873C9.30342 12.7118 9.2472 12.8475 9.21311 12.9895C9.17466 13.1497 9.17466 13.3199 9.17466 13.6602V14.8253H10.3398C10.6801 14.8253 10.8503 14.8253 11.0105 14.7869C11.1525 14.7528 11.2882 14.6966 11.4127 14.6203C11.5531 14.5342 11.6735 14.4139 11.9141 14.1732L17.0873 9M15 6.91266L16.4804 5.4323C17.0568 4.8559 17.9913 4.8559 18.5677 5.4323C19.1441 6.0087 19.1441 6.94324 18.5677 7.51964L17.0873 9M15 6.91266L17.0873 9" stroke="#FF7B34" stroke-width="1.5" stroke-linecap="round" stroke-linejoin="round"/>
</svg>
