<svg width="40" height="40" viewBox="0 0 40 40" fill="none" xmlns="http://www.w3.org/2000/svg">
<path d="M20.4251 18.75C21.4973 18.942 22.4622 19.3789 23.0246 20.3768C23.6097 21.4255 23.6254 22.75 24.1702 23.825C24.583 24.6504 25.2962 25.2875 25.6121 26.1613C26.1045 27.5038 25.4681 29.1288 24.3236 29.932C23.181 30.7267 21.6546 30.7574 20.3928 30.2293C19.5463 29.8758 18.7787 29.2886 17.8831 29.113C16.9305 28.9234 15.9395 29.2037 14.9791 29.0484C13.9518 28.8855 13.0129 28.1837 12.5299 27.2144C12.0469 26.2451 12.0139 25.034 12.4633 24.0413C12.9326 22.9992 13.8505 22.2486 14.7921 21.6577C15.7337 21.0667 16.7472 20.5749 17.5922 19.8425C18.0107 19.4754 18.3921 19.0448 18.8743 18.7747C19.3604 18.4875 19.9189 18.5981 20.4251 18.75Z" fill="#FFBF96"/>
<path d="M30.2366 18.6342C30.4933 19.2046 30.5134 19.8706 30.391 20.4833C30.2665 21.1047 30.0058 21.6833 29.702 22.2242C29.2664 23.0042 28.727 23.7496 27.9776 24.1716C27.2263 24.6022 26.228 24.6458 25.5654 24.084C24.8946 23.5202 24.719 22.4808 24.9508 21.6143C25.1846 20.7392 25.7608 20.021 26.3846 19.396C26.8634 18.9164 27.4035 18.47 28.0307 18.2443C28.658 18.0186 29.3943 17.7292 30.2366 18.6342Z" fill="#FFBF96"/>
<path d="M24.5896 10.6161C25.7214 10.4785 26.5887 11.426 26.897 12.2991C27.2052 13.1722 27.1549 14.1471 26.9803 15.0642C26.8463 15.7649 26.631 16.4456 26.2933 17.0598C25.9555 17.674 25.4791 18.2178 24.8851 18.5606C24.4892 18.7891 24.0375 18.9223 23.6022 18.8331C22.9064 18.6797 22.4415 18.0035 22.1694 17.3114C21.6336 15.9655 21.6117 14.4021 22.0951 13.0357C22.3052 12.4535 22.6048 11.8932 23.0334 11.4463C23.4499 11.0146 23.9954 10.6961 24.5896 10.6161Z" fill="#FFBF96"/>
<path d="M11.5484 14.156C11.081 14.5479 10.7756 15.1336 10.6267 15.7489C10.4779 16.3642 10.4694 17.0051 10.5074 17.6302C10.5701 18.524 10.7386 19.444 11.2342 20.1729C11.7299 20.9018 12.605 21.3983 13.4334 21.195C14.27 20.9937 14.8674 20.1449 15.0279 19.2518C15.1885 18.3587 14.9754 17.4459 14.6777 16.6027C14.4487 15.9486 14.1568 15.3062 13.6936 14.8117C13.2305 14.3172 12.6854 13.73 11.5484 14.156Z" fill="#FFBF96"/>
<path d="M20.0287 9.52711C19.0666 8.88233 17.895 9.34536 17.2407 9.99027C16.5946 10.6372 16.2269 11.5339 15.9953 12.437C15.8206 13.1276 15.7193 13.8364 15.7641 14.5449C15.809 15.2534 16.0101 15.9552 16.3929 16.5387C16.6501 16.9192 17.0043 17.2511 17.4338 17.366C18.1218 17.5537 18.833 17.1493 19.3667 16.6558C20.4121 15.6906 21.0983 14.3018 21.2398 12.8511C21.3034 12.2327 21.2612 11.5882 21.0691 10.9974C20.8771 10.4066 20.519 9.86537 20.0287 9.52711Z" fill="#FFBF96"/>
</svg>
