<svg width="49" height="48" viewBox="0 0 49 48" fill="none" xmlns="http://www.w3.org/2000/svg">
<g clip-path="url(#clip0_3404_66772)">
<path d="M24.5 48C37.7548 48 48.5 37.2548 48.5 24C48.5 10.7452 37.7548 0 24.5 0C11.2452 0 0.5 10.7452 0.5 24C0.5 37.2548 11.2452 48 24.5 48Z" fill="white"/>
<path d="M37.5328 21.984C37.5328 17.208 31.8808 12 24.5008 12C17.1207 12 11.4688 16.236 11.4688 21.984C11.4688 27.288 16.0168 31.68 22.4248 32.328C22.8208 32.364 23.1807 32.568 23.3967 32.904C23.5527 33.144 23.6368 33.432 23.6368 33.708C23.6248 34.296 23.5528 34.884 23.4448 35.46C23.3968 35.688 23.5407 35.928 23.7687 35.976C23.8647 36 23.9488 35.976 24.0328 35.952C27.1048 34.596 37.5328 29.016 37.5328 21.972V21.984Z" fill="#6FA0ED"/>
<path d="M19.7247 24.3838H17.7687V19.8238C17.7687 19.4638 17.4807 19.1758 17.1207 19.1758C16.7607 19.1758 16.4727 19.4638 16.4727 19.8238V25.0318C16.4727 25.3918 16.7607 25.6798 17.1207 25.6798H19.7247C20.0847 25.6798 20.3727 25.3918 20.3727 25.0318C20.3727 24.6718 20.0847 24.3838 19.7247 24.3838Z" fill="white"/>
<path d="M21.4644 19.1641C21.1044 19.1641 20.8164 19.4521 20.8164 19.8121V25.0201C20.8164 25.3801 21.1044 25.6681 21.4644 25.6681C21.8244 25.6681 22.1124 25.3801 22.1124 25.0201V19.8121C22.1124 19.4521 21.8244 19.1641 21.4644 19.1641Z" fill="white"/>
<path d="M27.536 19.1639C27.176 19.1639 26.888 19.4519 26.888 19.8119V23.0639L24.176 19.4159C23.96 19.1279 23.552 19.0679 23.264 19.2839C23.096 19.4039 23 19.5959 23 19.7999V25.0079C23.06 25.3559 23.408 25.5959 23.756 25.5359C24.02 25.4879 24.224 25.2839 24.284 25.0079V21.7559L26.996 25.4039C27.128 25.5719 27.332 25.6679 27.536 25.6679C27.608 25.6679 27.68 25.6679 27.74 25.6319C28.004 25.5479 28.184 25.2959 28.184 25.0079V19.7999C28.184 19.4399 27.896 19.1519 27.536 19.1519V19.1639Z" fill="white"/>
<path d="M32.3106 23.0758C32.6706 23.0758 32.9586 22.7878 32.9586 22.4278C32.9586 22.0678 32.6706 21.7798 32.3106 21.7798H30.3546V20.4718H32.3106C32.6706 20.4718 32.9586 20.1838 32.9586 19.8238C32.9586 19.4638 32.6706 19.1758 32.3106 19.1758H29.7066C29.3466 19.1758 29.0586 19.4638 29.0586 19.8238V25.0318C29.0586 25.3918 29.3466 25.6798 29.7066 25.6798H32.3106C32.6706 25.6798 32.9586 25.3918 32.9586 25.0318C32.9586 24.6718 32.6706 24.3838 32.3106 24.3838H30.3546V23.0758H32.3106Z" fill="white"/>
</g>
<defs>
<clipPath id="clip0_3404_66772">
<rect width="48" height="48" fill="white" transform="translate(0.5)"/>
</clipPath>
</defs>
</svg>
