<svg width="143" height="110" viewBox="0 0 143 110" fill="none" xmlns="http://www.w3.org/2000/svg">
<rect width="142.5" height="110" fill="#FFE4D2"/>
<path d="M142.5 110V0.5H119C106.021 0.5 95.5 11.0213 95.5 24V36.75V40.9962C95.5 58.8661 80.8678 73.2749 63 73H30.5C14.0802 73 0.646609 86.0755 0.202994 102.489L0 110H142.5Z" fill="white"/>
<path d="M46 62L42.1287 58.5C37.4632 54.4 33.7904 50.8 30.8125 47.8C27.8346 44.8 25.4522 42.1 23.7647 39.7C21.9779 37.3 20.7868 35.1 20.0919 33.1C19.3971 31.1 19 29.1 19 27C19 22.7 20.3897 19.2 23.2684 16.3C26.1471 13.4 29.6213 12 33.8897 12C36.2721 12 38.4559 12.5 40.5404 13.5C42.625 14.5 44.511 15.9 46 17.7C47.489 15.9 49.375 14.5 51.4596 13.5C53.5441 12.5 55.8272 12 58.1103 12C62.3787 12 65.8529 13.4 68.7316 16.3C71.6103 19.2 73 22.7 73 27C73 29.1 72.6029 31.1 71.9081 33.1C71.2132 35.1 70.0221 37.3 68.2353 39.7C66.4485 42.1 64.1654 44.8 61.1875 47.8C58.2096 50.8 54.4375 54.4 49.8713 58.5L46 62Z" fill="white"/>
</svg>
