<svg width="416" height="192" viewBox="0 0 416 192" fill="none" xmlns="http://www.w3.org/2000/svg">
<path d="M123.984 113.069V135.657H0.9375L0 118.598L73.5938 2.83341H96.2109L71.7188 44.9511L29.4141 113.069H123.984ZM102.656 2.83341V174.128H74.4141V2.83341H102.656Z" fill="#26D07C"/>
<path d="M263.663 74.1275V102.128C263.663 115.539 262.334 126.99 259.678 136.48C257.1 145.892 253.35 153.539 248.428 159.422C243.506 165.304 237.608 169.618 230.733 172.363C223.936 175.108 216.319 176.48 207.881 176.48C201.163 176.48 194.913 175.618 189.131 173.892C183.428 172.167 178.272 169.461 173.663 165.775C169.053 162.088 165.108 157.343 161.827 151.539C158.623 145.657 156.123 138.637 154.327 130.48C152.608 122.324 151.748 112.873 151.748 102.128V74.1275C151.748 60.6373 153.077 49.2648 155.733 40.0099C158.389 30.6765 162.178 23.1079 167.1 17.304C172.022 11.4216 177.881 7.14714 184.678 4.48047C191.553 1.8138 199.209 0.480469 207.647 0.480469C214.444 0.480469 220.694 1.34321 226.397 3.0687C232.178 4.71576 237.334 7.34321 241.866 10.9511C246.475 14.5589 250.381 19.2648 253.584 25.0687C256.866 30.7942 259.366 37.7354 261.084 45.8922C262.803 53.9707 263.663 63.3824 263.663 74.1275ZM235.42 106.128V69.8922C235.42 63.0687 235.03 57.0687 234.248 51.8922C233.467 46.6373 232.295 42.206 230.733 38.5981C229.248 34.9118 227.373 31.9315 225.108 29.6569C222.842 27.304 220.264 25.6177 217.373 24.5981C214.483 23.5001 211.241 22.9511 207.647 22.9511C203.272 22.9511 199.366 23.8138 195.928 25.5393C192.491 27.1864 189.6 29.853 187.256 33.5393C184.913 37.2256 183.116 42.0883 181.866 48.1275C180.694 54.0883 180.108 61.3432 180.108 69.8922V106.128C180.108 113.029 180.498 119.108 181.28 124.363C182.061 129.618 183.233 134.128 184.795 137.892C186.358 141.579 188.233 144.637 190.42 147.069C192.686 149.422 195.264 151.147 198.155 152.245C201.123 153.343 204.366 153.892 207.881 153.892C212.334 153.892 216.28 153.029 219.717 151.304C223.155 149.579 226.045 146.833 228.389 143.069C230.733 139.226 232.491 134.245 233.663 128.128C234.834 122.01 235.42 114.677 235.42 106.128Z" fill="#26D07C"/>
<path d="M415.997 113.069V135.657H292.95L292.013 118.598L365.606 2.83341H388.223L363.731 44.9511L321.427 113.069H415.997ZM394.669 2.83341V174.128H366.427V2.83341H394.669Z" fill="#26D07C"/>
<path d="M196.975 32.1522C196.515 31.7712 196.216 31.2782 196.078 30.7403C195.871 29.9335 196.078 29.0146 196.653 28.3647C197.434 27.5131 199.02 27.0425 200.538 28.051C207.962 33.0935 215.846 29.2836 215.938 29.2388C217.271 28.5216 218.949 29.0146 219.661 30.3145C220.397 31.6143 219.891 33.2503 218.558 33.9451C218.075 34.1916 207.111 40.5563 196.952 32.1298L196.975 32.1522Z" fill="#26D07C"/>
<path fill-rule="evenodd" clip-rule="evenodd" d="M233.209 170.449H189.555C189.994 170.543 190.437 170.634 190.885 170.721C192.97 171.256 199.184 173.748 199.445 180.203C199.792 189.15 200.748 201.524 214.479 177.398C215.609 175.44 219.302 172.324 226.037 171.745H225.994C228.521 171.413 230.924 170.977 233.209 170.449Z" fill="#26D07C"/>
<path d="M202.435 69.5474C203.689 75.9053 199.55 82.0754 193.192 83.3287C186.834 84.5819 180.664 80.4437 179.411 74.0857C178.158 67.7277 182.296 61.5576 188.654 60.3044C195.012 59.0512 201.182 63.1894 202.435 69.5474Z" fill="white" stroke="#26D07C"/>
<path d="M196.257 77.432C198.94 76.9031 200.661 74.1713 200.102 71.3304C199.542 68.4894 196.912 66.6151 194.229 67.144C191.546 67.6728 189.825 70.4046 190.385 73.2456C190.945 76.0865 193.574 77.9609 196.257 77.432Z" fill="#2F2F2F"/>
<path d="M236.591 71.1288C237.847 77.498 233.823 83.6338 227.634 84.8537C221.445 86.0737 215.394 81.9236 214.139 75.5544C212.883 69.1853 216.907 63.0494 223.096 61.8295C229.285 60.6095 235.336 64.7596 236.591 71.1288Z" fill="white" stroke="#26D07C"/>
<path d="M222.175 79.2389C225.016 78.6789 226.865 75.9219 226.305 73.081C225.745 70.24 222.988 68.3909 220.147 68.9509C217.306 69.5109 215.457 72.2679 216.017 75.1089C216.577 77.9498 219.334 79.7989 222.175 79.2389Z" fill="#2F2F2F"/>
<path d="M199.055 89.9492H215.055" stroke="#26D07C" stroke-width="2" stroke-linecap="round"/>
</svg>
