<svg width="435" height="206" viewBox="0 0 435 206" fill="none" xmlns="http://www.w3.org/2000/svg">
<path d="M28.7734 99.4648L5.33594 93.7227L14.7109 7.82422H107.406V32.4336H38.9688L34.3984 73.4492C36.9766 71.9648 40.6094 70.4414 45.2969 68.8789C49.9844 67.3164 55.2969 66.5352 61.2344 66.5352C69.3594 66.5352 76.5859 67.8633 82.9141 70.5195C89.3203 73.1758 94.75 76.9648 99.2031 81.8867C103.656 86.8086 107.016 92.8242 109.281 99.9336C111.625 106.965 112.797 114.934 112.797 123.84C112.797 131.652 111.664 138.996 109.398 145.871C107.133 152.746 103.656 158.801 98.9688 164.035C94.3594 169.27 88.5391 173.371 81.5078 176.34C74.4766 179.309 66.1562 180.793 56.5469 180.793C49.3594 180.793 42.4844 179.738 35.9219 177.629C29.3594 175.52 23.4609 172.395 18.2266 168.254C12.9922 164.113 8.8125 159.035 5.6875 153.02C2.5625 146.926 0.804688 139.934 0.414062 132.043H29.2422C29.8672 137.434 31.3516 142.043 33.6953 145.871C36.0391 149.699 39.125 152.629 42.9531 154.66C46.8594 156.613 51.3516 157.59 56.4297 157.59C61.0391 157.59 65.0234 156.73 68.3828 155.012C71.8203 153.293 74.6328 150.91 76.8203 147.863C79.0078 144.738 80.6484 141.066 81.7422 136.848C82.8359 132.551 83.3828 127.863 83.3828 122.785C83.3828 117.941 82.7578 113.488 81.5078 109.426C80.3359 105.285 78.4609 101.73 75.8828 98.7617C73.3828 95.793 70.2578 93.4883 66.5078 91.8477C62.8359 90.207 58.5 89.3867 53.5 89.3867C46.9375 89.3867 41.8984 90.3633 38.3828 92.3164C34.8672 94.2695 31.6641 96.6523 28.7734 99.4648Z" fill="#26D07C"/>
<path d="M256.811 78.7227V106.965C256.811 120.168 255.483 131.457 252.827 140.832C250.17 150.207 246.381 157.863 241.459 163.801C236.538 169.66 230.639 173.957 223.764 176.691C216.889 179.426 209.194 180.793 200.678 180.793C193.959 180.793 187.709 179.934 181.928 178.215C176.147 176.496 170.913 173.801 166.225 170.129C161.616 166.379 157.67 161.613 154.389 155.832C151.108 150.051 148.608 143.098 146.889 134.973C145.17 126.848 144.311 117.512 144.311 106.965V78.7227C144.311 65.4414 145.639 54.1523 148.295 44.8555C150.952 35.5586 154.741 28.0195 159.663 22.2383C164.663 16.3789 170.6 12.1211 177.475 9.46484C184.35 6.80859 192.006 5.48047 200.444 5.48047C207.241 5.48047 213.53 6.33984 219.311 8.05859C225.092 9.77734 230.288 12.4336 234.897 16.0273C239.506 19.6211 243.452 24.3086 246.733 30.0898C250.014 35.793 252.514 42.668 254.233 50.7148C255.952 58.7617 256.811 68.0977 256.811 78.7227ZM227.514 110.949V74.5039C227.514 67.7852 227.123 61.8867 226.342 56.8086C225.561 51.7305 224.428 47.3945 222.944 43.8008C221.459 40.207 219.623 37.3164 217.436 35.1289C215.248 32.9414 212.748 31.3398 209.936 30.3242C207.123 29.2305 203.959 28.6836 200.444 28.6836C196.147 28.6836 192.319 29.5039 188.959 31.1445C185.678 32.7852 182.905 35.4023 180.639 38.9961C178.373 42.5117 176.616 47.1992 175.366 53.0586C174.194 58.918 173.608 66.0664 173.608 74.5039V110.949C173.608 117.746 173.998 123.684 174.78 128.762C175.561 133.84 176.694 138.215 178.178 141.887C179.741 145.559 181.577 148.566 183.686 150.91C185.873 153.176 188.373 154.855 191.186 155.949C194.077 157.043 197.241 157.59 200.678 157.59C205.053 157.59 208.881 156.73 212.163 155.012C215.522 153.293 218.334 150.598 220.6 146.926C222.866 143.254 224.584 138.449 225.756 132.512C226.928 126.574 227.514 119.387 227.514 110.949Z" fill="#26D07C"/>
<path d="M189.42 36.1522C188.96 35.7712 188.662 35.2782 188.524 34.7403C188.317 33.9335 188.524 33.0146 189.098 32.3647C189.88 31.5131 191.466 31.0425 192.983 32.051C200.407 37.0935 208.291 33.2836 208.383 33.2388C209.716 32.5216 211.394 33.0146 212.107 34.3145C212.842 35.6143 212.337 37.2503 211.003 37.9451C210.521 38.1916 199.557 44.5563 189.397 36.1298L189.42 36.1522Z" fill="#26D07C"/>
<path d="M292.003 72.1173C291.409 72.1754 290.849 72.0404 290.37 71.7595C289.651 71.3382 289.144 70.5443 289.088 69.6786C289.033 68.5241 289.816 67.0666 291.6 66.6997C300.409 64.9794 303.256 56.6988 303.289 56.602C303.718 55.1504 305.25 54.3063 306.675 54.7158C308.116 55.1089 308.921 56.62 308.475 58.0558C308.311 58.5721 305.108 70.8386 291.971 72.1179L292.003 72.1173Z" fill="#26D07C"/>
<path fill-rule="evenodd" clip-rule="evenodd" d="M225.654 174.449H182C182.439 174.543 182.883 174.634 183.33 174.721C185.416 175.256 191.629 177.748 191.89 184.203C192.238 193.15 193.194 205.524 206.924 181.398C208.054 179.44 211.747 176.324 218.482 175.745H218.439C220.966 175.413 223.369 174.977 225.654 174.449Z" fill="#26D07C"/>
<path fill-rule="evenodd" clip-rule="evenodd" d="M400.868 149.48L370 180.348C370.377 180.103 370.754 179.854 371.133 179.6C372.986 178.503 379.142 175.872 383.89 180.251C390.462 186.332 399.889 194.406 392.538 167.637C391.952 165.454 392.36 160.639 396.713 155.467L396.683 155.498C398.235 153.476 399.626 151.469 400.868 149.48Z" fill="#26D07C"/>
<path d="M194.881 73.5474C196.134 79.9053 191.996 86.0754 185.638 87.3287C179.28 88.5819 173.11 84.4437 171.856 78.0857C170.603 71.7277 174.741 65.5576 181.099 64.3044C187.457 63.0512 193.627 67.1894 194.881 73.5474Z" fill="white" stroke="#26D07C"/>
<path d="M188.703 81.432C191.386 80.9031 193.107 78.1713 192.547 75.3304C191.987 72.4894 189.358 70.6151 186.675 71.144C183.992 71.6728 182.27 74.4046 182.83 77.2456C183.39 80.0865 186.019 81.9609 188.703 81.432Z" fill="#2F2F2F"/>
<path d="M229.309 73.578C230.565 79.9472 226.541 86.083 220.352 87.303C214.163 88.5229 208.112 84.3729 206.856 78.0037C205.601 71.6345 209.625 65.4986 215.814 64.2787C222.003 63.0587 228.054 67.2088 229.309 73.578Z" fill="white" stroke="#26D07C"/>
<path d="M214.893 81.6881C217.734 81.1282 219.583 78.3712 219.023 75.5302C218.463 72.6892 215.706 70.8401 212.865 71.4001C210.024 71.9601 208.175 74.7171 208.735 77.5581C209.295 80.399 212.052 82.2481 214.893 81.6881Z" fill="#2F2F2F"/>
<path d="M364.153 53.8833L383.481 74.476C392.516 84.1031 399.274 93.2434 403.753 101.897C408.232 110.551 410.708 118.726 411.183 126.424C411.604 134.064 410.244 141.234 407.102 147.933C403.961 154.632 399.285 160.895 393.076 166.722C388.177 171.321 383.032 174.971 377.64 177.674C372.249 180.378 366.587 181.994 360.657 182.525C354.729 182.945 348.591 182.17 342.242 180.2C335.893 178.231 329.312 174.872 322.498 170.123C315.685 165.375 308.669 159.156 301.451 151.466L282.124 130.873C273.035 121.189 266.277 112.049 261.852 103.452C257.426 94.8556 255.03 86.7655 254.662 79.1818C254.298 71.4876 255.713 64.3197 258.908 57.678C262.103 51.0362 266.777 44.8282 272.929 39.054C277.885 34.4025 283.059 30.7252 288.451 28.022C293.842 25.3187 299.448 23.7001 305.268 23.166C311.089 22.632 317.173 23.3499 323.522 25.3197C329.818 27.2326 336.346 30.5346 343.106 35.2257C349.866 39.9169 356.882 46.1361 364.153 53.8833ZM364.846 97.4307L339.904 70.8566C335.306 65.9577 330.985 61.9241 326.94 58.7561C322.895 55.588 319.101 53.2017 315.56 51.5972C312.018 49.9927 308.701 49.1414 305.609 49.0434C302.517 48.9454 299.598 49.4885 296.852 50.6727C294.053 51.8 291.372 53.5666 288.808 55.9725C285.675 58.9131 283.445 62.131 282.119 65.6263C280.849 69.0681 280.618 72.8744 281.425 77.0453C282.179 81.1592 284.105 85.7801 287.204 90.9079C290.359 95.9822 294.824 101.595 300.598 107.748L325.54 134.322C330.191 139.278 334.54 143.34 338.584 146.508C342.629 149.676 346.449 152.091 350.045 153.752C353.697 155.36 357.094 156.297 360.236 156.562C363.381 156.717 366.354 156.231 369.153 155.104C372.009 153.923 374.69 152.156 377.197 149.804C380.387 146.81 382.59 143.563 383.806 140.065C385.08 136.513 385.286 132.622 384.425 128.395C383.564 124.167 381.529 119.487 378.32 114.356C375.111 109.225 370.62 103.583 364.846 97.4307Z" fill="#26D07C"/>
<path d="M193.113 96.0516C194.465 95.9514 197.112 95.3167 199.271 93.6308C200.029 93.0394 202.04 93.3338 202.745 93.9869C203.856 95.0158 205.713 95.9928 208.682 96.4025" stroke="#26D07C" stroke-width="2" stroke-linecap="round"/>
<path d="M328.86 105.359C329.808 104.39 331.373 102.163 331.878 99.4704C332.055 98.5259 333.758 97.4162 334.719 97.4398C336.232 97.477 338.272 96.9812 340.769 95.3252" stroke="#26D07C" stroke-width="2" stroke-linecap="round"/>
<path d="M301.146 109.717C300.559 109.83 299.989 109.748 299.486 109.513C298.731 109.161 298.152 108.417 298.015 107.561C297.853 106.416 298.497 104.892 300.239 104.36C308.849 101.826 310.911 93.3158 310.934 93.2164C311.227 91.731 312.673 90.7477 314.13 91.0225C315.601 91.2794 316.544 92.7088 316.234 94.1799C316.118 94.7094 314.074 107.221 301.114 109.72L301.146 109.717Z" fill="#262626"/>
<path d="M328.228 82.2364C327.642 82.3497 327.071 82.2675 326.568 82.0326C325.814 81.6802 325.235 80.937 325.098 80.0804C324.936 78.9359 325.579 77.4118 327.322 76.88C335.931 74.3454 337.993 65.8354 338.017 65.7359C338.309 64.2506 339.755 63.2672 341.212 63.542C342.683 63.799 343.626 65.2284 343.317 66.6994C343.201 67.2289 341.157 79.7407 328.196 82.2399L328.228 82.2364Z" fill="#262626"/>
<path d="M388 22.4805H394.586C395.477 22.4805 395.923 23.5576 395.293 24.1876L389.707 29.7734C389.077 30.4033 389.523 31.4805 390.414 31.4805H398" stroke="#26D07C" stroke-width="2" stroke-linecap="round"/>
<path d="M414 4.48047H424.238C425.122 4.48047 425.571 5.54211 424.956 6.17644L415.644 15.7845C415.029 16.4188 415.478 17.4805 416.362 17.4805H428" stroke="#26D07C" stroke-width="2" stroke-linecap="round"/>
</svg>
