<svg width="32" height="32" viewBox="0 0 32 32" fill="none" xmlns="http://www.w3.org/2000/svg">
<g clip-path="url(#clip0_165_2686)">
<path d="M16 32C24.8366 32 32 24.8366 32 16C32 7.16344 24.8366 0 16 0C7.16344 0 0 7.16344 0 16C0 24.8366 7.16344 32 16 32Z" fill="white"/>
<mask id="mask0_165_2686" style="mask-type:alpha" maskUnits="userSpaceOnUse" x="8" y="8" width="16" height="16">
<path d="M12.7639 8.23746C11.9352 8.27653 11.3644 8.40934 10.8641 8.60465C10.3481 8.80778 9.91806 9.0734 9.48024 9.5109C9.05023 9.9484 8.7766 10.3859 8.58114 10.8937C8.38569 11.3937 8.26059 11.9562 8.2215 12.7922C8.18241 13.6281 8.17459 13.8937 8.18241 16.0109C8.18241 18.1359 8.19805 18.4015 8.23714 19.2297C8.27623 20.0578 8.40914 20.6281 8.6046 21.1281C8.80787 21.6437 9.07369 22.0734 9.51151 22.5109C9.94933 22.9406 10.3872 23.214 10.8953 23.4093C11.3957 23.6047 11.9586 23.7297 12.7952 23.7687C13.6317 23.8078 13.8975 23.8156 16.0163 23.8078C18.1428 23.8078 18.4087 23.7922 19.2374 23.7531C20.0661 23.714 20.6368 23.5812 21.1372 23.3859C21.6532 23.1828 22.0832 22.9172 22.521 22.4797C22.951 22.0422 23.2247 21.6047 23.4201 21.0968C23.6156 20.5968 23.7407 20.0343 23.7798 19.1984C23.8189 18.3625 23.8267 18.0968 23.8189 15.9797C23.8189 13.8547 23.8032 13.589 23.7641 12.7609C23.725 11.9328 23.5921 11.3625 23.3967 10.8625C23.1934 10.3468 22.9276 9.91715 22.4898 9.47965C22.0519 9.04996 21.6141 8.77653 21.1059 8.58121C20.6056 8.3859 20.0427 8.2609 19.2061 8.22184C18.3696 8.18278 18.1037 8.17496 15.985 8.18278C13.8584 8.18278 13.5926 8.1984 12.7639 8.23746ZM12.8499 22.3625C12.0915 22.3312 11.6772 22.2062 11.3957 22.0968C11.0282 21.9562 10.7702 21.7843 10.4966 21.5109C10.223 21.2375 10.051 20.9797 9.91024 20.6125C9.80078 20.339 9.67569 19.925 9.6366 19.1593C9.59751 18.339 9.58969 18.089 9.58187 16.0031C9.58187 13.9172 9.58187 13.6672 9.62097 12.8468C9.65224 12.089 9.77733 11.675 9.88678 11.3937C10.0275 11.0265 10.1995 10.7687 10.4732 10.4953C10.7468 10.2218 11.0048 10.05 11.3722 9.90934C11.6459 9.79996 12.0603 9.67496 12.8264 9.6359C13.6474 9.59684 13.8975 9.58903 15.985 9.58121C18.0725 9.58121 18.3227 9.58121 19.1436 9.62028C19.9019 9.65153 20.3163 9.77653 20.5978 9.8859C20.9652 10.0265 21.2232 10.1984 21.4969 10.4718C21.7705 10.7453 21.9425 11.0031 22.0832 11.3703C22.1927 11.6437 22.3178 12.0578 22.3569 12.8234C22.3959 13.6437 22.4038 13.8937 22.4116 15.9797C22.4116 18.0656 22.4116 18.3156 22.3725 19.1359C22.3412 19.8937 22.2161 20.3078 22.1067 20.589C21.9659 20.9562 21.7939 21.214 21.5203 21.4875C21.2467 21.7609 20.9887 21.9328 20.6212 22.0734C20.3476 22.1828 19.9332 22.3078 19.167 22.3468C18.3461 22.3859 18.0959 22.3937 16.0085 22.4015C13.921 22.4015 13.6708 22.4015 12.8499 22.3625ZM19.2217 11.8234C19.2217 12.339 19.6439 12.7609 20.1599 12.7609C20.6759 12.7609 21.0981 12.339 21.0981 11.8234C21.0981 11.3078 20.6759 10.8859 20.1599 10.8859C19.6439 10.8859 19.2217 11.3078 19.2217 11.8234ZM11.9821 16.0031C11.9821 18.2218 13.7881 20.0109 16.0006 20.0031C18.221 20.0031 20.0114 18.1984 20.0114 15.9875C20.0114 13.7687 18.2054 11.9797 15.985 11.9875C13.7646 11.9875 11.9743 13.7922 11.9821 16.0031ZM13.3893 16.0031C13.3893 14.5656 14.5543 13.3937 15.9928 13.3937C17.4314 13.3937 18.6041 14.5578 18.6041 15.9953C18.6041 17.4328 17.4392 18.6047 16.0006 18.6047C14.5621 18.6047 13.3893 17.4406 13.3893 16.0031Z" fill="white"/>
</mask>
<g mask="url(#mask0_165_2686)">
<rect x="-0.00390625" y="-0.215942" width="35.5417" height="35.5469" fill="#6FA0ED"/>
</g>
</g>
<defs>
<clipPath id="clip0_165_2686">
<rect width="32" height="32" fill="white"/>
</clipPath>
</defs>
</svg>
