<svg width="48" height="48" viewBox="0 0 48 48" fill="none" xmlns="http://www.w3.org/2000/svg">
<path d="M20.9113 7.65692C21.5967 4.2932 26.4033 4.2932 27.0887 7.65692C27.5586 9.96243 30.2971 10.9592 32.139 9.49506C34.8263 7.35892 38.5083 10.4485 36.8712 13.4659C35.7492 15.534 37.2064 18.0579 39.5584 18.1202C42.9901 18.2112 43.8247 22.9447 40.6311 24.2039C38.4422 25.0669 37.9362 27.937 39.6979 29.4966C42.2682 31.7721 39.865 35.9347 36.6091 34.8465C34.3776 34.1006 32.1451 35.9739 32.4921 38.3011C32.9985 41.6964 28.4818 43.3403 26.6872 40.4139C25.4572 38.4081 22.5428 38.4081 21.3128 40.4139C19.5182 43.3403 15.0015 41.6964 15.5079 38.3011C15.8549 35.9739 13.6224 34.1006 11.3908 34.8465C8.13504 35.9347 5.73177 31.7721 8.3021 29.4966C10.0638 27.937 9.55775 25.0669 7.36885 24.2039C4.17527 22.9447 5.00991 18.2112 8.44156 18.1202C10.7936 18.0579 12.2508 15.534 11.1288 13.4659C9.4917 10.4485 13.1737 7.35892 15.861 9.49506C17.7029 10.9592 20.4414 9.96243 20.9113 7.65692Z" fill="#5496FF"/>
<path d="M17 24.8477L21.9985 29.4891L29.9954 19.707" stroke="white" stroke-width="3" stroke-linecap="round" stroke-linejoin="round"/>
</svg>
