<svg width="24" height="24" viewBox="0 0 24 24" fill="none" xmlns="http://www.w3.org/2000/svg">
<path d="M13.75 4.21563V7.52006C13.75 7.9681 13.75 8.19212 13.8454 8.36325C13.9293 8.51378 14.0631 8.63616 14.2278 8.71286C14.4149 8.80006 14.66 8.80006 15.15 8.80006H18.7642M15.5 12.8H8.5M15.5 16H8.5M10.25 9.6H8.5M13.75 4H9.2C7.72986 4 6.99479 4 6.43327 4.26158C5.93935 4.49168 5.53778 4.85883 5.28611 5.31042C5 5.82381 5 6.49587 5 7.84V16.16C5 17.5041 5 18.1762 5.28611 18.6896C5.53778 19.1412 5.93935 19.5083 6.43327 19.7384C6.99479 20 7.72986 20 9.2 20H14.8C16.2701 20 17.0052 20 17.5667 19.7384C18.0607 19.5083 18.4622 19.1412 18.7139 18.6896C19 18.1762 19 17.5041 19 16.16V8.8L13.75 4Z" stroke="#64748B" stroke-width="1.5" stroke-linecap="round" stroke-linejoin="round"/>
</svg>
