<svg width="32" height="32" viewBox="0 0 32 32" fill="none" xmlns="http://www.w3.org/2000/svg">
<path fill-rule="evenodd" clip-rule="evenodd" d="M24 7.5H8C6.61929 7.5 5.5 8.61929 5.5 10V22C5.5 23.3807 6.61929 24.5 8 24.5H24C25.3807 24.5 26.5 23.3807 26.5 22V10C26.5 8.61929 25.3807 7.5 24 7.5ZM8 5C5.23858 5 3 7.23858 3 10V22C3 24.7614 5.23858 27 8 27H24C26.7614 27 29 24.7614 29 22V10C29 7.23858 26.7614 5 24 5H8Z" fill="#4F6C99"/>
<path fill-rule="evenodd" clip-rule="evenodd" d="M6.92538 10.612C7.27783 10.0184 8.04476 9.82292 8.63837 10.1754L15.1068 14.016C15.6575 14.343 16.3429 14.343 16.8936 14.016L23.362 10.1754C23.9556 9.82292 24.7226 10.0184 25.075 10.612C25.4275 11.2056 25.232 11.9726 24.6384 12.325L18.17 16.1656C16.8325 16.9598 15.1679 16.9598 13.8304 16.1656L7.36202 12.325C6.76842 11.9726 6.57292 11.2056 6.92538 10.612Z" fill="#4F6C99"/>
</svg>
