<svg width="24" height="24" viewBox="0 0 24 24" fill="none" xmlns="http://www.w3.org/2000/svg">
<mask id="mask0_3065_748656" style="mask-type:alpha" maskUnits="userSpaceOnUse" x="0" y="0" width="24" height="24">
<rect width="24" height="24" fill="#D9D9D9"/>
</mask>
<g mask="url(#mask0_3065_748656)">
<path d="M7.01749 12.2127C7.31572 12.4232 7.7222 12.3885 7.98033 12.1303L12.1303 7.98033C12.3885 7.7222 12.4232 7.31572 12.2127 7.01749C12.0553 6.79453 11.9409 6.56384 11.8652 6.32415C11.7915 6.09082 11.75 5.81829 11.75 5.5C11.75 4.70888 12.0131 4.07251 12.5428 3.54283C13.0725 3.01315 13.7089 2.75 14.5 2.75C15.2911 2.75 15.9275 3.01315 16.4572 3.54283C16.9869 4.07251 17.25 4.70888 17.25 5.5C17.25 5.52031 17.2493 5.5361 17.2484 5.54783C17.2482 5.55018 17.248 5.55232 17.2478 5.55426C17.1965 5.66789 17.1493 5.82443 17.1608 6.00928C17.175 6.23632 17.2737 6.43437 17.4197 6.58033C17.5656 6.72629 17.7637 6.82498 17.9907 6.83916C18.1756 6.85072 18.3321 6.80349 18.4457 6.75219C18.4477 6.75201 18.4498 6.75181 18.4522 6.75163C18.4639 6.75071 18.4797 6.75 18.5 6.75C19.2911 6.75 19.9275 7.01315 20.4572 7.54283C20.9869 8.07251 21.25 8.70888 21.25 9.5C21.25 10.2911 20.9869 10.9275 20.4572 11.4572C19.9275 11.9869 19.2911 12.25 18.5 12.25C18.1817 12.25 17.9092 12.2085 17.6758 12.1348C17.4362 12.0591 17.2055 11.9447 16.9825 11.7873C16.6843 11.5768 16.2778 11.6115 16.0197 11.8697L11.8697 16.0197C11.6115 16.2778 11.5768 16.6843 11.7873 16.9825C11.9447 17.2055 12.0591 17.4362 12.1348 17.6758C12.2085 17.9092 12.25 18.1817 12.25 18.5C12.25 19.2911 11.9869 19.9275 11.4572 20.4572C10.9275 20.9869 10.2911 21.25 9.5 21.25C8.70888 21.25 8.07251 20.9869 7.54283 20.4572C7.01315 19.9275 6.75 19.2911 6.75 18.5C6.75 18.4797 6.75071 18.4639 6.75163 18.4522C6.75181 18.4498 6.752 18.4477 6.75219 18.4457C6.80348 18.3321 6.85072 18.1756 6.83916 17.9907C6.82498 17.7637 6.72629 17.5656 6.58033 17.4197C6.43437 17.2737 6.23632 17.175 6.00928 17.1608C5.82443 17.1493 5.66789 17.1965 5.55426 17.2478C5.55232 17.248 5.55018 17.2482 5.54783 17.2484C5.5361 17.2493 5.52031 17.25 5.5 17.25C4.70888 17.25 4.07251 16.9869 3.54283 16.4572C3.01315 15.9275 2.75 15.2911 2.75 14.5C2.75 13.7089 3.01315 13.0725 3.54283 12.5428C4.07251 12.0131 4.70888 11.75 5.5 11.75C5.81829 11.75 6.09082 11.7915 6.32415 11.8652C6.56384 11.9409 6.79453 12.0553 7.01749 12.2127Z" stroke="#FF9F61" stroke-width="1.5" stroke-linejoin="round"/>
</g>
</svg>
