<svg width="36" height="36" viewBox="0 0 36 36" fill="none" xmlns="http://www.w3.org/2000/svg">
<path d="M32.9972 18.3649C32.9972 17.2412 32.896 16.166 32.7081 15.1321H18.1641V21.0556L26.5403 21.0574C26.2005 23.0283 25.1072 24.7085 23.4319 25.8285V29.6717H28.4179C31.3292 26.9953 32.9972 23.0391 32.9972 18.3649Z" fill="#4285F4"/>
<path d="M23.4337 25.8295C22.0458 26.7593 20.2586 27.3032 18.1677 27.3032C14.1287 27.3032 10.7023 24.5999 9.47521 20.9561H4.33203V24.9194C6.88013 29.9419 12.1173 33.3883 18.1677 33.3883C22.3494 33.3883 25.8626 32.0223 28.4197 29.6708L23.4337 25.8295Z" fill="#34A853"/>
<path d="M8.99268 18.0165C8.99268 16.9933 9.16436 16.0043 9.477 15.0745V11.1111H4.33382C3.28025 13.1879 2.6875 15.5322 2.6875 18.0165C2.6875 20.5008 3.28205 22.8451 4.33382 24.9219L9.477 20.9585C9.16436 20.0287 8.99268 19.0396 8.99268 18.0165Z" fill="#FABB05"/>
<path d="M18.1677 8.72669C20.4501 8.72669 22.494 9.50752 24.1078 11.0333L28.5263 6.64807C25.8427 4.16557 22.344 2.6416 18.1677 2.6416C12.1191 2.6416 6.88013 6.08802 4.33203 11.1105L9.47521 15.0738C10.7023 11.43 14.1287 8.72669 18.1677 8.72669Z" fill="#E94235"/>
</svg>
