<svg width="24" height="24" viewBox="0 0 24 24" fill="none" xmlns="http://www.w3.org/2000/svg">
<path d="M15.6363 18V16.5556C15.6363 15.7894 15.3298 15.0546 14.7843 14.5128C14.2387 13.971 13.4988 13.6667 12.7272 13.6667H6.90908C6.13755 13.6667 5.39761 13.971 4.85205 14.5128C4.30649 15.0546 4 15.7894 4 16.5556V18M20 18V16.5555C19.9995 15.9155 19.785 15.2937 19.3901 14.7878C18.9952 14.2819 18.4423 13.9206 17.8182 13.7605M14.9088 5.09391C15.5346 5.25301 16.0892 5.61441 16.4853 6.12113C16.8814 6.62785 17.0963 7.25106 17.0963 7.89252C17.0963 8.53397 16.8814 9.15719 16.4853 9.6639C16.0892 10.1706 15.5346 10.532 14.9088 10.6911M12.727 7.88889C12.727 9.48438 11.4246 10.7778 9.81793 10.7778C8.21129 10.7778 6.90885 9.48438 6.90885 7.88889C6.90885 6.2934 8.21129 5 9.81793 5C11.4246 5 12.727 6.2934 12.727 7.88889Z" stroke="#020617" stroke-width="1.5" stroke-linecap="round" stroke-linejoin="round"/>
</svg>
