<svg width="24" height="24" viewBox="0 0 24 24" fill="none" xmlns="http://www.w3.org/2000/svg">
<path d="M15.5 5.6606C16.3137 5.6606 16.7206 5.6606 17.0544 5.76033C17.9603 6.03096 18.6678 6.81988 18.9106 7.82991C19 8.20211 19 8.65575 19 9.56304V15.4167C19 17.0559 19 17.8755 18.7139 18.5015C18.4622 19.0523 18.0607 19.5 17.5667 19.7806C17.0052 20.0996 16.2701 20.0996 14.8 20.0996H9.2C7.72986 20.0996 6.99479 20.0996 6.43327 19.7806C5.93935 19.5 5.53778 19.0523 5.28611 18.5015C5 17.8755 5 17.0559 5 15.4167V9.56304C5 8.65575 5 8.20211 5.08944 7.82991C5.33217 6.81988 6.03973 6.03096 6.9456 5.76033C7.27941 5.6606 7.68627 5.6606 8.5 5.6606M15.5 5.6606C15.5 6.20699 15.5 6.48019 15.4046 6.68888C15.3207 6.87246 15.1869 7.02171 15.0222 7.11524C14.8351 7.22158 14.59 7.22158 14.1 7.22158H9.9C9.40995 7.22158 9.16493 7.22158 8.97776 7.11524C8.81312 7.02171 8.67926 6.87246 8.59537 6.68888C8.5 6.48019 8.5 6.20699 8.5 5.6606M15.5 5.6606C15.5 5.11421 15.5 4.841 15.4046 4.6323C15.3207 4.44873 15.1869 4.29948 15.0222 4.20594C14.8351 4.09961 14.59 4.09961 14.1 4.09961H9.9C9.40995 4.09961 9.16493 4.09961 8.97776 4.20594C8.81312 4.29948 8.67926 4.44873 8.59537 4.6323C8.5 4.841 8.5 5.11421 8.5 5.6606M14.5 10.9996L12 13.4996M12 13.4996L9.5 15.9996M12 13.4996L9.5 10.9996M12 13.4996L14.5 15.9996" stroke="white" stroke-width="1.5" stroke-linecap="round" stroke-linejoin="round"/>
</svg>
