<svg width="24" height="24" viewBox="0 0 24 24" fill="none" xmlns="http://www.w3.org/2000/svg">
<path d="M10 5H6.56C5.66392 5 5.21587 5 4.87362 5.16349C4.57256 5.3073 4.32779 5.53677 4.17439 5.81901C4 6.13988 4 7.55992 4 8.4V9.375C5.5464 9.375 6.8 10.5503 6.8 12C6.8 13.4497 5.5464 14.625 4 14.625V15.6C4 16.4401 4 17.8601 4.17439 18.181C4.32779 18.4632 4.57256 18.6927 4.87362 18.8365C5.21587 19 5.66392 19 6.56 19H10M10 5H17.44C18.3361 5 18.7841 5 19.1264 5.16349C19.4274 5.3073 19.6722 5.53677 19.8256 5.81901C20 6.13988 20 7.55992 20 8.4V9.375C18.4536 9.375 17.2 10.5503 17.2 12C17.2 13.4497 18.4536 14.625 20 14.625V15.6C20 16.4401 20 17.8601 19.8256 18.181C19.6722 18.4632 19.4274 18.6927 19.1264 18.8365C18.7841 19 18.3361 19 17.44 19H10M10 5V8M10 19V16M10 13V11" stroke="#020617" stroke-width="1.5" stroke-linecap="round" stroke-linejoin="round"/>
</svg>
