<svg width="24" height="24" viewBox="0 0 24 24" fill="none" xmlns="http://www.w3.org/2000/svg">
<path d="M12.3854 10.8756C13.3504 11.0484 14.2188 11.4416 14.7249 12.3397C15.2515 13.2836 15.2657 14.4756 15.756 15.4431C16.1275 16.1859 16.7694 16.7593 17.0537 17.5458C17.4969 18.754 16.9241 20.2165 15.894 20.9394C14.8657 21.6546 13.4919 21.6823 12.3564 21.2069C11.5945 20.8888 10.9037 20.3604 10.0976 20.2023C9.24028 20.0317 8.34839 20.2839 7.48404 20.1441C6.55943 19.9976 5.71446 19.366 5.27975 18.4936C4.84505 17.6212 4.81533 16.5312 5.21983 15.6377C5.64217 14.6999 6.46828 14.0244 7.31573 13.4925C8.16318 12.9606 9.07529 12.518 9.83585 11.8589C10.2125 11.5284 10.5558 11.1409 10.9897 10.8978C11.4272 10.6394 11.9299 10.7389 12.3854 10.8756Z" fill="white"/>
<path d="M21.2169 10.7713C21.448 11.2846 21.4661 11.884 21.3558 12.4355C21.2439 12.9947 21.0092 13.5155 20.7358 14.0023C20.3437 14.7043 19.8582 15.3752 19.1838 15.755C18.5077 16.1425 17.6092 16.1818 17.0128 15.6761C16.4091 15.1687 16.251 14.2332 16.4597 13.4534C16.6701 12.6658 17.1887 12.0194 17.7501 11.4569C18.1811 11.0253 18.6671 10.6235 19.2316 10.4204C19.7962 10.2173 20.4589 9.95683 21.2169 10.7713Z" fill="white"/>
<path d="M16.1356 3.55463C17.1543 3.43072 17.9348 4.28348 18.2122 5.06927C18.4896 5.85507 18.4444 6.73252 18.2872 7.55793C18.1667 8.18856 17.9729 8.80114 17.6689 9.35394C17.3649 9.90675 16.9361 10.3962 16.4016 10.7046C16.0452 10.9103 15.6387 11.0302 15.2469 10.9499C14.6207 10.8118 14.2023 10.2033 13.9574 9.58038C13.4752 8.3691 13.4555 6.96202 13.8906 5.73227C14.0796 5.20821 14.3493 4.70402 14.735 4.3018C15.1099 3.91322 15.6008 3.62661 16.1356 3.55463Z" fill="white"/>
<path d="M4.39654 6.73994C3.97583 7.09261 3.70099 7.6198 3.56705 8.17357C3.4331 8.72734 3.42541 9.30409 3.45962 9.86672C3.51606 10.6712 3.6677 11.4991 4.11377 12.1551C4.55985 12.8111 5.34752 13.258 6.09308 13.075C6.84597 12.8939 7.38361 12.13 7.52813 11.3261C7.67265 10.5223 7.48087 9.70081 7.21292 8.94201C7.00676 8.35329 6.74407 7.77508 6.32726 7.33003C5.91046 6.88497 5.41984 6.35652 4.39654 6.73994Z" fill="white"/>
<path d="M12.0238 2.57354C11.1579 1.99324 10.1035 2.40997 9.51466 2.99039C8.93317 3.57262 8.60221 4.37965 8.39374 5.19242C8.23658 5.81402 8.14535 6.45188 8.18571 7.08956C8.22606 7.72725 8.40708 8.35884 8.75163 8.88401C8.98309 9.2264 9.30189 9.5251 9.6884 9.62853C10.3076 9.79747 10.9477 9.43349 11.428 8.98939C12.3688 8.12072 12.9865 6.87075 13.1138 5.56515C13.1711 5.00859 13.133 4.42854 12.9602 3.8968C12.7874 3.36505 12.4651 2.87798 12.0238 2.57354Z" fill="white"/>
</svg>
