<svg width="24" height="24" viewBox="0 0 24 24" fill="none" xmlns="http://www.w3.org/2000/svg">
<path d="M12 5.19922V7.43922" stroke="#A1ABB8" stroke-width="1.5"/>
<path d="M12 9.11914V11.3591" stroke="#A1ABB8" stroke-width="1.5"/>
<path d="M12 13.0391V15.2791" stroke="#A1ABB8" stroke-width="1.5"/>
<path d="M12 16.959V19.199" stroke="#A1ABB8" stroke-width="1.5"/>
<path d="M19.2 19.4H4.8C4.305 19.4 3.88125 19.2237 3.52875 18.8712C3.17625 18.5187 3 18.095 3 17.6V14C3.495 14 3.91875 13.8238 4.27125 13.4713C4.62375 13.1188 4.8 12.695 4.8 12.2C4.8 11.705 4.62375 11.2812 4.27125 10.9287C3.91875 10.5762 3.495 10.4 3 10.4V6.8C3 6.305 3.17625 5.88125 3.52875 5.52875C3.88125 5.17625 4.305 5 4.8 5H19.2C19.695 5 20.1187 5.17625 20.4712 5.52875C20.8237 5.88125 21 6.305 21 6.8V10.4C20.505 10.4 20.0812 10.5762 19.7287 10.9287C19.3762 11.2812 19.2 11.705 19.2 12.2C19.2 12.695 19.3762 13.1188 19.7287 13.4713C20.0812 13.8238 20.505 14 21 14V17.6C21 18.095 20.8237 18.5187 20.4712 18.8712C20.1187 19.2237 19.695 19.4 19.2 19.4Z" stroke="#A1ABB8" stroke-width="1.5" stroke-linejoin="bevel"/>
</svg>
