<svg width="24" height="24" viewBox="0 0 24 24" fill="none" xmlns="http://www.w3.org/2000/svg">
<path d="M12.2596 11.2491C12.9029 11.3643 13.4818 11.6264 13.8192 12.2252C14.1703 12.8544 14.1797 13.6491 14.5066 14.2941C14.7543 14.7893 15.1822 15.1716 15.3718 15.6959C15.6672 16.5014 15.2853 17.4764 14.5986 17.9583C13.9131 18.4351 12.9972 18.4535 12.2402 18.1367C11.7323 17.9246 11.2717 17.5723 10.7343 17.4669C10.1628 17.3531 9.56819 17.5213 8.99197 17.4281C8.37556 17.3304 7.81224 16.9093 7.52244 16.3277C7.23264 15.7462 7.21283 15.0195 7.48249 14.4239C7.76405 13.7986 8.31479 13.3483 8.87976 12.9937C9.44473 12.6391 10.0528 12.344 10.5598 11.9046C10.8109 11.6843 11.0398 11.426 11.3291 11.2639C11.6207 11.0916 11.9559 11.158 12.2596 11.2491Z" fill="#FFBF96"/>
<path d="M18.142 11.1789C18.296 11.5211 18.3081 11.9207 18.2346 12.2884C18.16 12.6612 18.0035 13.0084 17.8212 13.3329C17.5599 13.8009 17.2362 14.2482 16.7866 14.5014C16.3358 14.7597 15.7369 14.7859 15.3393 14.4488C14.9368 14.1105 14.8314 13.4869 14.9705 12.967C15.1108 12.4419 15.4566 12.011 15.8308 11.636C16.1181 11.3482 16.4421 11.0804 16.8185 10.945C17.1949 10.8095 17.6366 10.6359 18.142 11.1789Z" fill="#FFBF96"/>
<path d="M14.7597 6.36976C15.4388 6.28715 15.9591 6.85565 16.1441 7.37952C16.329 7.90338 16.2989 8.48835 16.1941 9.03862C16.1137 9.45904 15.9845 9.86742 15.7819 10.236C15.5792 10.6045 15.2934 10.9308 14.937 11.1364C14.6994 11.2735 14.4284 11.3535 14.1672 11.2999C13.7497 11.2079 13.4708 10.8022 13.3076 10.3869C12.9861 9.5794 12.9729 8.64135 13.263 7.82151C13.389 7.47214 13.5688 7.13602 13.826 6.86787C14.0759 6.60881 14.4031 6.41774 14.7597 6.36976Z" fill="#FFBF96"/>
<path d="M6.93363 8.49199C6.65316 8.72711 6.46993 9.07856 6.38063 9.44775C6.29134 9.81693 6.28621 10.2014 6.30902 10.5765C6.34664 11.1128 6.44774 11.6648 6.74512 12.1021C7.0425 12.5395 7.56762 12.8373 8.06466 12.7154C8.56658 12.5946 8.92501 12.0853 9.02136 11.5495C9.1177 11.0136 8.98985 10.4659 8.81122 9.96004C8.67378 9.56756 8.49865 9.18208 8.22078 8.88538C7.94291 8.58868 7.61583 8.23638 6.93363 8.49199Z" fill="#FFBF96"/>
<path d="M12.0185 5.71505C11.4412 5.32818 10.7383 5.606 10.3457 5.99294C9.95805 6.38109 9.73741 6.91911 9.59843 7.46096C9.49366 7.87536 9.43284 8.3006 9.45974 8.72572C9.48664 9.15085 9.60732 9.57191 9.83702 9.92202C9.99133 10.1503 10.2039 10.3494 10.4615 10.4184C10.8743 10.531 11.301 10.2883 11.6213 9.99227C12.2485 9.41316 12.6603 8.57985 12.7452 7.70945C12.7833 7.33841 12.758 6.95171 12.6427 6.59721C12.5275 6.24271 12.3127 5.918 12.0185 5.71505Z" fill="#FFBF96"/>
</svg>
