<svg width="24" height="24" viewBox="0 0 24 24" fill="none" xmlns="http://www.w3.org/2000/svg">
<path d="M19.4062 16.6253L19.9377 16.6252C20.5244 16.6251 21 16.1494 21 15.5627V12.7274C21 12.4083 20.8566 12.1061 20.6094 11.9044L17.5745 9.42692C17.3849 9.27208 17.1475 9.1875 16.9026 9.1875H15.6875C15.1007 9.1875 14.625 9.6632 14.625 10.25V16.625M19.4062 16.6253C19.1875 16.0061 18.5971 15.5625 17.9031 15.5625M19.4062 16.6253C19.4649 16.7914 19.4968 16.9701 19.4968 17.1562M17.9031 15.5625C17.209 15.5625 16.6186 16.0061 16.3999 16.6253M17.9031 15.5625C18.7833 15.5625 19.4968 16.276 19.4968 17.1562M17.9031 15.5625C17.0229 15.5625 16.3093 16.276 16.3093 17.1562M16.3999 16.6253L14.625 16.625M16.3999 16.6253C16.3412 16.7914 16.3093 16.9701 16.3093 17.1562M14.625 16.625V7.0625C14.625 6.4757 14.1493 6 13.5625 6H5.0625C4.4757 6 4 6.4757 4 7.0625V15.5626C4 16.1494 4.47561 16.6251 5.06235 16.6251L6.21558 16.6253M14.625 16.625L9.22192 16.6253M9.22192 16.6253C9.00322 16.0061 8.41279 15.5625 7.71875 15.5625M9.22192 16.6253C9.28058 16.7914 9.3125 16.9701 9.3125 17.1562M7.71875 15.5625C7.02471 15.5625 6.43428 16.0061 6.21558 16.6253M7.71875 15.5625C8.59895 15.5625 9.3125 16.276 9.3125 17.1562M7.71875 15.5625C6.83855 15.5625 6.125 16.276 6.125 17.1562M6.21558 16.6253C6.15692 16.7914 6.125 16.9701 6.125 17.1562M19.4968 17.1562C19.4968 18.0365 18.7833 18.75 17.9031 18.75C17.0229 18.75 16.3093 18.0365 16.3093 17.1562M9.3125 17.1562C9.3125 18.0365 8.59895 18.75 7.71875 18.75C6.83855 18.75 6.125 18.0365 6.125 17.1562" stroke="#A1ABB8" stroke-width="1.5" stroke-linecap="round"/>
</svg>
