<svg width="24" height="24" viewBox="0 0 24 24" fill="none" xmlns="http://www.w3.org/2000/svg">
<path d="M15.2632 6.36842L17.6316 4M17.6316 4L20 6.36842M17.6316 4V8.73684M12.5 4.78947H8.78947C7.46303 4.78947 6.79981 4.78947 6.29318 5.04762C5.84753 5.27468 5.48521 5.63701 5.25814 6.08265C5 6.58929 5 7.25251 5 8.57895V15.2105C5 16.537 5 17.2002 5.25814 17.7068C5.48521 18.1525 5.84753 18.5148 6.29318 18.7419C6.79981 19 7.46303 19 8.78947 19H16.0526C16.7868 19 17.1539 19 17.4551 18.9193C18.2724 18.7003 18.9108 18.0619 19.1298 17.2446C19.2105 16.9434 19.2105 16.5763 19.2105 15.8421M10.9211 9.13158C10.9211 10.0036 10.2141 10.7105 9.34211 10.7105C8.47008 10.7105 7.76316 10.0036 7.76316 9.13158C7.76316 8.25955 8.47008 7.55263 9.34211 7.55263C10.2141 7.55263 10.9211 8.25955 10.9211 9.13158ZM14.4658 11.8301L7.78775 17.9011C7.41213 18.2426 7.22432 18.4133 7.20771 18.5612C7.19331 18.6894 7.24246 18.8166 7.33936 18.9017C7.45114 19 7.70496 19 8.21259 19H15.6231C16.7593 19 17.3274 19 17.7736 18.8091C18.3338 18.5695 18.78 18.1232 19.0197 17.5631C19.2105 17.1169 19.2105 16.5488 19.2105 15.4126C19.2105 15.0303 19.2105 14.8392 19.1687 14.6612C19.1162 14.4375 19.0155 14.2279 18.8736 14.0472C18.7607 13.9033 18.6115 13.7839 18.313 13.5451L16.1046 11.7784C15.8058 11.5394 15.6564 11.4199 15.4919 11.3777C15.3469 11.3405 15.1944 11.3454 15.052 11.3916C14.8905 11.4441 14.7489 11.5727 14.4658 11.8301Z" stroke="#418AFF" stroke-width="1.5" stroke-linecap="round" stroke-linejoin="round"/>
</svg>
