<svg width="24" height="24" viewBox="0 0 24 24" fill="none" xmlns="http://www.w3.org/2000/svg">
<path d="M16.3077 14.9854C16.8044 15.0304 17.3055 14.9711 17.7751 14.8119C18.2448 14.6526 18.6713 14.3973 19.0241 14.0642C19.377 13.7312 19.6474 13.3285 19.8161 12.8852C19.9849 12.4419 20 11.5 20 11.5C20 11.5 19.9849 10.5581 19.8161 10.1148C19.6474 9.67147 19.377 9.26887 19.0241 8.93579C18.6713 8.60271 18.2448 8.34739 17.7751 8.18815C17.3055 8.02889 16.8044 7.96962 16.3077 8.0146C12.9231 8.0146 11.0769 14.9854 7.69231 14.9854C7.19558 15.0304 6.69446 14.9711 6.22485 14.8119C5.75522 14.6526 5.32871 14.3973 4.97586 14.0642C4.62302 13.7312 4.35256 13.3285 4.18385 12.8852C4.01514 12.4419 4 11.5 4 11.5C4 11.5 4.01514 10.5581 4.18385 10.1148C4.35256 9.67147 4.62302 9.26887 4.97586 8.93579C5.32871 8.60271 5.75522 8.34739 6.22485 8.18815C6.69446 8.02889 7.19558 7.96962 7.69231 8.0146C11.0769 8.0146 12.9231 14.9854 16.3077 14.9854Z" stroke="#020617" stroke-width="1.5" stroke-linecap="round" stroke-linejoin="round"/>
</svg>
