<svg width="24" height="24" viewBox="0 0 24 24" fill="none" xmlns="http://www.w3.org/2000/svg">
<mask id="mask0_3065_748997" style="mask-type:alpha" maskUnits="userSpaceOnUse" x="0" y="0" width="24" height="24">
<rect width="24" height="24" fill="#D9D9D9"/>
</mask>
<g mask="url(#mask0_3065_748997)">
<path d="M12 11.25C11.1005 11.25 10.3491 10.9385 9.70533 10.2947C9.06153 9.65087 8.75 8.89951 8.75 8C8.75 7.10049 9.06153 6.34913 9.70533 5.70533C10.3491 5.06153 11.1005 4.75 12 4.75C12.8995 4.75 13.6509 5.06153 14.2947 5.70533C14.9385 6.34913 15.25 7.10049 15.25 8C15.25 8.89951 14.9385 9.65087 14.2947 10.2947C13.6509 10.9385 12.8995 11.25 12 11.25ZM6 19.25C5.30964 19.25 4.75 18.6904 4.75 18V17.2C4.75 16.7694 4.85872 16.3848 5.07663 16.0299C5.2978 15.6698 5.58329 15.404 5.94029 15.2184C6.92409 14.7269 7.91933 14.3604 8.92654 14.1164C9.93527 13.8721 10.9593 13.75 12 13.75C13.0407 13.75 14.0647 13.8721 15.0735 14.1164C16.0807 14.3604 17.0759 14.7269 18.0597 15.2184C18.4167 15.404 18.7022 15.6698 18.9234 16.0299C19.1413 16.3848 19.25 16.7694 19.25 17.2V18C19.25 18.6904 18.6904 19.25 18 19.25H6Z" stroke="#FF9F61" stroke-width="1.5"/>
</g>
</svg>
