<svg width="24" height="24" viewBox="0 0 24 24" fill="none" xmlns="http://www.w3.org/2000/svg">
<path d="M19 7.72222H13.5556M16.2778 5V10.4444M6.24444 5H9.2C9.6356 5 9.85339 5 10.0198 5.08477C10.1661 5.15934 10.2851 5.27833 10.3597 5.42467C10.4444 5.59105 10.4444 5.80885 10.4444 6.24444V9.2C10.4444 9.6356 10.4444 9.85339 10.3597 10.0198C10.2851 10.1661 10.1661 10.2851 10.0198 10.3597C9.85339 10.4444 9.6356 10.4444 9.2 10.4444H6.24444C5.80885 10.4444 5.59105 10.4444 5.42467 10.3597C5.27833 10.2851 5.15934 10.1661 5.08477 10.0198C5 9.85339 5 9.6356 5 9.2V6.24444C5 5.80885 5 5.59105 5.08477 5.42467C5.15934 5.27833 5.27833 5.15934 5.42467 5.08477C5.59105 5 5.80885 5 6.24444 5ZM14.8 13.5556H17.7556C18.1912 13.5556 18.409 13.5556 18.5753 13.6403C18.7217 13.7149 18.8407 13.8339 18.9152 13.9802C19 14.1466 19 14.3644 19 14.8V17.7556C19 18.1912 19 18.409 18.9152 18.5753C18.8407 18.7217 18.7217 18.8407 18.5753 18.9152C18.409 19 18.1912 19 17.7556 19H14.8C14.3644 19 14.1466 19 13.9802 18.9152C13.8339 18.8407 13.7149 18.7217 13.6403 18.5753C13.5556 18.409 13.5556 18.1912 13.5556 17.7556V14.8C13.5556 14.3644 13.5556 14.1466 13.6403 13.9802C13.7149 13.8339 13.8339 13.7149 13.9802 13.6403C14.1466 13.5556 14.3644 13.5556 14.8 13.5556ZM6.24444 13.5556H9.2C9.6356 13.5556 9.85339 13.5556 10.0198 13.6403C10.1661 13.7149 10.2851 13.8339 10.3597 13.9802C10.4444 14.1466 10.4444 14.3644 10.4444 14.8V17.7556C10.4444 18.1912 10.4444 18.409 10.3597 18.5753C10.2851 18.7217 10.1661 18.8407 10.0198 18.9152C9.85339 19 9.6356 19 9.2 19H6.24444C5.80885 19 5.59105 19 5.42467 18.9152C5.27833 18.8407 5.15934 18.7217 5.08477 18.5753C5 18.409 5 18.1912 5 17.7556V14.8C5 14.3644 5 14.1466 5.08477 13.9802C5.15934 13.8339 5.27833 13.7149 5.42467 13.6403C5.59105 13.5556 5.80885 13.5556 6.24444 13.5556Z" stroke="#64748B" stroke-width="1.5" stroke-linecap="round" stroke-linejoin="round"/>
</svg>
