<svg width="24" height="25" viewBox="0 0 24 25" fill="none" xmlns="http://www.w3.org/2000/svg">
<path d="M11.262 6.97597H8.33974C7.17072 6.97597 6.58621 6.97597 6.13971 7.20348C5.74695 7.4036 5.42763 7.72292 5.22751 8.11568C5 8.56218 5 9.14669 5 10.3157V16.1603C5 17.3293 5 17.9138 5.22751 18.3603C5.42763 18.7531 5.74695 19.0724 6.13971 19.2725C6.58621 19.5 7.17072 19.5 8.33974 19.5H14.1843C15.3533 19.5 15.9378 19.5 16.3843 19.2725C16.7771 19.0724 17.0964 18.7531 17.2965 18.3603C17.524 17.9138 17.524 17.3293 17.524 16.1603V13.238M15 7.41266L9.82678 12.5859C9.58611 12.8265 9.46578 12.9469 9.37972 13.0873C9.30342 13.2118 9.2472 13.3475 9.21311 13.4895C9.17466 13.6497 9.17466 13.8199 9.17466 14.1602V15.3253H10.3398C10.6801 15.3253 10.8503 15.3253 11.0105 15.2869C11.1525 15.2528 11.2882 15.1966 11.4127 15.1203C11.5531 15.0342 11.6735 14.9139 11.9141 14.6732L17.0873 9.5M15 7.41266L16.4804 5.9323C17.0568 5.3559 17.9913 5.3559 18.5677 5.9323C19.1441 6.5087 19.1441 7.44324 18.5677 8.01964L17.0873 9.5M15 7.41266L17.0873 9.5" stroke="#020617" stroke-width="1.5" stroke-linecap="round" stroke-linejoin="round"/>
</svg>
