<svg width="20" height="20" viewBox="0 0 20 20" fill="none" xmlns="http://www.w3.org/2000/svg">
<path fill-rule="evenodd" clip-rule="evenodd" d="M9.99967 16.6654C13.6816 16.6654 16.6663 13.6806 16.6663 9.9987C16.6663 6.3168 13.6816 3.33203 9.99967 3.33203C6.31778 3.33203 3.33301 6.3168 3.33301 9.9987C3.33301 13.6806 6.31778 16.6654 9.99967 16.6654ZM10.833 12.4987C10.833 12.9589 10.4612 13.332 10.0026 13.332H9.99677C9.53814 13.332 9.16634 12.9589 9.16634 12.4987C9.16634 12.0385 9.53814 11.6654 9.99677 11.6654H10.0026C10.4612 11.6654 10.833 12.0385 10.833 12.4987ZM9.37467 9.7613C9.37467 10.1225 9.6545 10.4154 9.99967 10.4154C10.3449 10.4154 10.6247 10.1225 10.6247 9.7613L10.6247 7.31943C10.6247 6.9582 10.3449 6.66536 9.99967 6.66536C9.6545 6.66536 9.37467 6.9582 9.37467 7.31943V9.7613Z" fill="#FBBB3B"/>
</svg>
