<svg width="24" height="24" viewBox="0 0 24 24" fill="none" xmlns="http://www.w3.org/2000/svg">
<path d="M15.5 5.66109C16.3137 5.66109 16.7206 5.66109 17.0544 5.76082C17.9603 6.03145 18.6678 6.82037 18.9106 7.8304C19 8.20259 19 8.65624 19 9.56353V15.4172C19 17.0564 19 17.8759 18.7139 18.502C18.4622 19.0527 18.0607 19.5005 17.5667 19.7811C17.0052 20.1001 16.2701 20.1001 14.8 20.1001H9.2C7.72986 20.1001 6.99479 20.1001 6.43327 19.7811C5.93935 19.5005 5.53778 19.0527 5.28611 18.502C5 17.8759 5 17.0564 5 15.4172V9.56353C5 8.65624 5 8.20259 5.08944 7.8304C5.33217 6.82037 6.03973 6.03145 6.9456 5.76082C7.27941 5.66109 7.68627 5.66109 8.5 5.66109M15.5 5.66109C15.5 6.20748 15.5 6.48068 15.4046 6.68937C15.3207 6.87294 15.1869 7.02219 15.0222 7.11573C14.8351 7.22206 14.59 7.22206 14.1 7.22206H9.9C9.40995 7.22206 9.16493 7.22206 8.97776 7.11573C8.81312 7.02219 8.67926 6.87294 8.59537 6.68937C8.5 6.48068 8.5 6.20748 8.5 5.66109M15.5 5.66109C15.5 5.11469 15.5 4.84148 15.4046 4.63279C15.3207 4.44922 15.1869 4.29997 15.0222 4.20643C14.8351 4.1001 14.59 4.1001 14.1 4.1001H9.9C9.40995 4.1001 9.16493 4.1001 8.97776 4.20643C8.81312 4.29997 8.67926 4.44922 8.59537 4.63279C8.5 4.84148 8.5 5.11469 8.5 5.66109M9 13.5001L11 15.5001L15.5 11.0001" stroke="white" stroke-width="1.5" stroke-linecap="round" stroke-linejoin="round"/>
</svg>
