<svg width="24" height="24" viewBox="0 0 24 24" fill="none" xmlns="http://www.w3.org/2000/svg">
<path d="M15.2667 19H8.05773C7.58654 19 7.35095 19 7.24185 18.9068C7.14719 18.826 7.09696 18.7047 7.10673 18.5806C7.11798 18.4376 7.28457 18.271 7.61776 17.9378L14.2312 11.3244C14.5392 11.0164 14.6932 10.8624 14.8708 10.8047C15.027 10.7539 15.1952 10.7539 15.3515 10.8047C15.529 10.8624 15.6831 11.0164 15.9911 11.3244L19 14.3333V15.2667M15.2667 19C16.5735 19 17.2269 19 17.726 18.7457C18.165 18.522 18.522 18.165 18.7457 17.726C19 17.2269 19 16.5735 19 15.2667M15.2667 19H8.73333C7.42654 19 6.77315 19 6.27402 18.7457C5.83498 18.522 5.47802 18.165 5.25432 17.726C5 17.2269 5 16.5735 5 15.2667V8.73333C5 7.42654 5 6.77315 5.25432 6.27402C5.47802 5.83498 5.83498 5.47802 6.27402 5.25432C6.77315 5 7.42654 5 8.73333 5H15.2667C16.5735 5 17.2269 5 17.726 5.25432C18.165 5.47802 18.522 5.83498 18.7457 6.27402C19 6.77315 19 7.42654 19 8.73333V15.2667M10.8333 9.27778C10.8333 10.1369 10.1369 10.8333 9.27778 10.8333C8.41867 10.8333 7.72222 10.1369 7.72222 9.27778C7.72222 8.41867 8.41867 7.72222 9.27778 7.72222C10.1369 7.72222 10.8333 8.41867 10.8333 9.27778Z" stroke="#64748B" stroke-width="1.5" stroke-linecap="round" stroke-linejoin="round"/>
</svg>
