<svg width="24" height="24" viewBox="0 0 24 24" fill="none" xmlns="http://www.w3.org/2000/svg">
<mask id="mask0_3065_759441" style="mask-type:alpha" maskUnits="userSpaceOnUse" x="0" y="0" width="24" height="24">
<rect width="24" height="24" fill="#D9D9D9"/>
</mask>
<g mask="url(#mask0_3065_759441)">
<path d="M11.0996 19V17.7C10.3163 17.5167 9.67878 17.1792 9.18711 16.6875C8.69544 16.1958 8.33294 15.55 8.09961 14.75L9.74961 14.1C9.94961 14.7833 10.2621 15.2958 10.6871 15.6375C11.1121 15.9792 11.5996 16.15 12.1496 16.15C12.6996 16.15 13.1704 16.0208 13.5621 15.7625C13.9538 15.5042 14.1496 15.1 14.1496 14.55C14.1496 14.0667 13.9454 13.675 13.5371 13.375C13.1288 13.075 12.3996 12.7333 11.3496 12.35C10.3663 12 9.64544 11.5833 9.18711 11.1C8.72878 10.6167 8.49961 9.98333 8.49961 9.2C8.49961 8.51667 8.73711 7.89583 9.21211 7.3375C9.68711 6.77917 10.3329 6.41667 11.1496 6.25V5H12.8996V6.25C13.4996 6.3 14.0454 6.54167 14.5371 6.975C15.0288 7.40833 15.3663 7.91667 15.5496 8.5L13.9496 9.15C13.8163 8.76667 13.5996 8.44583 13.2996 8.1875C12.9996 7.92917 12.5829 7.8 12.0496 7.8C11.4663 7.8 11.0204 7.925 10.7121 8.175C10.4038 8.425 10.2496 8.76667 10.2496 9.2C10.2496 9.63333 10.4413 9.975 10.8246 10.225C11.2079 10.475 11.8996 10.7667 12.8996 11.1C14.0996 11.5333 14.8996 12.0417 15.2996 12.625C15.6996 13.2083 15.8996 13.85 15.8996 14.55C15.8996 15.0333 15.8163 15.4583 15.6496 15.825C15.4829 16.1917 15.2621 16.5042 14.9871 16.7625C14.7121 17.0208 14.3913 17.2292 14.0246 17.3875C13.6579 17.5458 13.2663 17.6667 12.8496 17.75V19H11.0996Z" fill="#FF9F61"/>
<circle cx="12" cy="12" r="9.25" stroke="#FF9F61" stroke-width="1.5"/>
</g>
</svg>
