<svg width="24" height="25" viewBox="0 0 24 25" fill="none" xmlns="http://www.w3.org/2000/svg">
<path d="M15.5 6.16109C16.3137 6.16109 16.7206 6.16109 17.0544 6.26082C17.9603 6.53145 18.6678 7.32037 18.9106 8.3304C19 8.70259 19 9.15624 19 10.0635V15.9172C19 17.5564 19 18.3759 18.7139 19.002C18.4622 19.5527 18.0607 20.0005 17.5667 20.2811C17.0052 20.6001 16.2701 20.6001 14.8 20.6001H9.2C7.72986 20.6001 6.99479 20.6001 6.43327 20.2811C5.93935 20.0005 5.53778 19.5527 5.28611 19.002C5 18.3759 5 17.5564 5 15.9172V10.0635C5 9.15624 5 8.70259 5.08944 8.3304C5.33217 7.32037 6.03973 6.53145 6.9456 6.26082C7.27941 6.16109 7.68627 6.16109 8.5 6.16109M15.5 6.16109C15.5 6.70748 15.5 6.98068 15.4046 7.18937C15.3207 7.37294 15.1869 7.52219 15.0222 7.61573C14.8351 7.72206 14.59 7.72206 14.1 7.72206H9.9C9.40995 7.72206 9.16493 7.72206 8.97776 7.61573C8.81312 7.52219 8.67926 7.37294 8.59537 7.18937C8.5 6.98068 8.5 6.70748 8.5 6.16109M15.5 6.16109C15.5 5.61469 15.5 5.34148 15.4046 5.13279C15.3207 4.94922 15.1869 4.79997 15.0222 4.70643C14.8351 4.6001 14.59 4.6001 14.1 4.6001H9.9C9.40995 4.6001 9.16493 4.6001 8.97776 4.70643C8.81312 4.79997 8.67926 4.94922 8.59537 5.13279C8.5 5.34148 8.5 5.61469 8.5 6.16109M9.8125 11.8126L14.1875 16.1876M15.5 14.0001C15.5 15.9331 13.933 17.5001 12 17.5001C10.067 17.5001 8.5 15.9331 8.5 14.0001C8.5 12.0671 10.067 10.5001 12 10.5001C13.933 10.5001 15.5 12.0671 15.5 14.0001Z" stroke="#64748B" stroke-width="1.5" stroke-linecap="round" stroke-linejoin="round"/>
</svg>
