<svg width="24" height="24" viewBox="0 0 24 24" fill="none" xmlns="http://www.w3.org/2000/svg">
<mask id="mask0_3065_748628" style="mask-type:alpha" maskUnits="userSpaceOnUse" x="0" y="0" width="24" height="24">
<rect width="24" height="24" fill="#D9D9D9"/>
</mask>
<g mask="url(#mask0_3065_748628)">
<path d="M9.5 22C8.51667 22 7.6875 21.6625 7.0125 20.9875C6.3375 20.3125 6 19.4833 6 18.5C6 18.35 6.02083 18.2333 6.0625 18.15C6.10417 18.0667 6.1 18 6.05 17.95C6 17.9 5.93333 17.8958 5.85 17.9375C5.76667 17.9792 5.65 18 5.5 18C4.51667 18 3.6875 17.6625 3.0125 16.9875C2.3375 16.3125 2 15.4833 2 14.5C2 13.5167 2.3375 12.6875 3.0125 12.0125C3.6875 11.3375 4.51667 11 5.5 11C5.88333 11 6.23333 11.05 6.55 11.15C6.86667 11.25 7.16667 11.4 7.45 11.6L11.6 7.45C11.4 7.16667 11.25 6.86667 11.15 6.55C11.05 6.23333 11 5.88333 11 5.5C11 4.51667 11.3375 3.6875 12.0125 3.0125C12.6875 2.3375 13.5167 2 14.5 2C15.4833 2 16.3125 2.3375 16.9875 3.0125C17.6625 3.6875 18 4.51667 18 5.5C18 5.65 17.9792 5.76667 17.9375 5.85C17.8958 5.93333 17.9 6 17.95 6.05C18 6.1 18.0667 6.10417 18.15 6.0625C18.2333 6.02083 18.35 6 18.5 6C19.4833 6 20.3125 6.3375 20.9875 7.0125C21.6625 7.6875 22 8.51667 22 9.5C22 10.4833 21.6625 11.3125 20.9875 11.9875C20.3125 12.6625 19.4833 13 18.5 13C18.1167 13 17.7667 12.95 17.45 12.85C17.1333 12.75 16.8333 12.6 16.55 12.4L12.4 16.55C12.6 16.8333 12.75 17.1333 12.85 17.45C12.95 17.7667 13 18.1167 13 18.5C13 19.4833 12.6625 20.3125 11.9875 20.9875C11.3125 21.6625 10.4833 22 9.5 22Z" fill="#FF9F61"/>
</g>
</svg>
