<svg width="32" height="32" viewBox="0 0 32 32" fill="none" xmlns="http://www.w3.org/2000/svg">
<path d="M4.85492 26.6666C4.47251 26.6666 4.23165 26.2548 4.41914 25.9215L15.5642 6.10799C15.7554 5.76816 16.2446 5.76816 16.4358 6.10799L27.5809 25.9215C27.7683 26.2548 27.5275 26.6666 27.1451 26.6666H4.85492Z" fill="#FBBB3B"/>
<path fill-rule="evenodd" clip-rule="evenodd" d="M17.3337 22.6666C17.3337 23.403 16.7388 23.9999 16.005 23.9999H15.9957C15.2619 23.9999 14.667 23.403 14.667 22.6666C14.667 21.9302 15.2619 21.3333 15.9957 21.3333H16.005C16.7388 21.3333 17.3337 21.9302 17.3337 22.6666Z" fill="white"/>
<path fill-rule="evenodd" clip-rule="evenodd" d="M16.0003 19.3333C15.448 19.3333 15.0003 18.8647 15.0003 18.2867L15.0003 14.3798C15.0003 13.8018 15.448 13.3333 16.0003 13.3333C16.5526 13.3333 17.0003 13.8018 17.0003 14.3798L17.0003 18.2867C17.0003 18.8647 16.5526 19.3333 16.0003 19.3333Z" fill="white"/>
</svg>
